<svg xmlns="http://www.w3.org/2000/svg" viewBox="0 0 750 500"><g id="freepik--Shadow--inject-76"><ellipse cx="377.98229" cy="458.92145" rx="361.76299" ry="18.15635" style="fill:#f5f5f5;"></ellipse></g><g id="freepik--Court--inject-76"><g><polygon points="16.2193 457.5221 122.62388 391.4167 636.73639 390.7364 742.10148 459.2005 16.2193 457.5221" style="fill:#FF7C5F;"></polygon><polygon points="48.9866 448.3763 122.60316 399.1769 626.39739 398.4597 697.80939 448.3763 48.9866 448.3763" style="fill:#FF7C5F;"></polygon><g style="opacity:.3;"><path d="M647.24969,410.9809h-86.6903s-19.48839,1.0908-11.1561,15.5163c6.8458,11.8522,35.4968,11.4747,35.4968,11.4747l101.3548,.4207-39.0052-27.4117Z"></path></g><g style="opacity:.3;"><path d="M192.0513,409.3564H108.933l-42.5772,27.4118,101.3548-.4209s28.651,.3776,35.4969-11.4746c8.3322-14.4255-11.1562-15.5163-11.1562-15.5163Z"></path></g><path d="M46.91074,449.0239l63.32596-40.29892,11.85709-7.54553c.31171-.19837,1.83768-.95855,1.00541-.76937,.17707-.04025,.39454,.00969,.57507-.00081,3.25788-.18936,6.58165-.00922,9.84354-.01378l50.86756-.07123,80.76886-.1131,96.74353-.13547,98.79157-.13834,86.91297-.12171,61.10773-.08557,16.45283-.02304c1.34323-.00188,2.70749,.0654,4.04912-.00567,.25262-.01338,.60336-.05366,.85359-.0012-.0087-.00182-.41599-.18056,.2548,.25579,21.98034,14.29829,43.28141,29.76147,64.88837,44.61901l6.47,4.44895,.37854-1.3976H73.14183c-8.49657,0-16.99878-.09032-25.49501,0-.37145,.00395-.74314,0-1.11462,0-.96518,0-.96678,1.5,0,1.5H675.44765c8.49657,0,16.99878,.09033,25.49501,0,.37145-.00395,.74314,0,1.11462,0,.78218,0,.96962-.99116,.37854-1.3976l-62.22134-42.78509c-2.94717-2.02655-6.05949-4.9109-9.32234-6.41029-.65102-.29917-.90505-.30115-1.61634-.33205-3.58124-.1556-7.20704,.01009-10.79073,.01511l-52.7561,.07388-82.10388,.11497-97.49582,.13653-98.82432,.13839-86.08932,.12055-59.29029,.08303-15.17003,.02124c-2.30383,.00323-3.56046-.20319-5.49925,1.0306l-68.69714,43.71699-6.40528,4.07614c-.81211,.5168-.06054,1.81551,.75708,1.29521Z" style="fill:#fff;"></path><path d="M76.9763,429.7525l13.19922-.04561,29.90285-.10332,32.06519-.11079,19.68613-.06802c.40585-.0014,.87962,.06496,1.28158-.00443,.85525-.14763,1.4461-1.43687,1.9133-2.08996l8.4594-11.8252,.66302-.92682c.34035-.47577-.11882-1.12854-.6476-1.12854H100.5253c-.96518,0-.96678,1.5,0,1.5h82.9741l-.6476-1.12854-10.3517,14.4704,.6476-.37146-9.59005,.03314-22.90243,.07913-27.82657,.09615-23.96373,.0828-7.94519,.02745c-1.24203,.00429-2.53848-.09797-3.7769,.01305-.05462,.0049-.11156,.00039-.16653,.00058-.96502,.00333-.96691,1.50334,0,1.5h0Z" style="fill:#fff;"></path><path d="M109.7573,410.1065h77.30738c4.35144,0,8.42381-.05845,12.51089,1.84448,1.83571,.8547,3.63711,2.11527,4.46971,4.0309,1.11113,2.55643,.14292,5.4612-1.08263,7.78338-2.79676,5.29929-8.8023,7.74205-14.29142,9.24993-6.95487,1.91052-14.23907,2.55793-21.43333,2.58415-5.80906,.02118-11.61811,.04749-17.42716,.07124l-32.31966,.13212-32.83254,.13422-18.98482,.07761-.90042,.00368c-.96499,.00394-.96693,1.50395,0,1.5l13.89516-.0568,31.46507-.12863,34.15735-.13963,21.58097-.08822c5.64263-.02307,11.25726-.32592,16.83413-1.26146,5.93291-.99527,12.29382-2.58311,17.17951-6.26632,4.00532-3.01952,7.76209-9.19136,5.49056-14.27046-2.25317-5.03804-9.3188-6.70018-14.37739-6.70018H109.7573c-.96518,0-.96678,1.5,0,1.5h0Z" style="fill:#fff;"></path><g style="opacity:.3;"><ellipse cx="372.29739" cy="423.41802" rx="62.313" ry="10.58307"></ellipse></g><path d="M433.86039,423.418c-.0295,1.29835-1.98818,2.30294-3.10611,2.84718-2.70869,1.31867-5.7139,2.07497-8.63735,2.74224-9.50097,2.16856-19.31361,3.05619-29.02318,3.63989-12.43275,.74741-24.92054,.80618-37.36162,.22576-10.26404-.47885-20.60618-1.30752-30.69661-3.32033-3.23989-.64628-6.49947-1.40255-9.58802-2.5944-1.48564-.5733-3.759-1.3945-4.54621-2.92841-.22125-.43112-.21963-.79587,0-1.22383,.32703-.63723,.97759-1.10154,1.56481-1.47696,2.22629-1.42326,4.88976-2.18597,7.41905-2.86133,8.87733-2.37039,18.1716-3.30495,27.30866-3.98883,12.32994-.92286,24.72542-1.10645,37.08135-.69865,10.76189,.35519,21.584,1.10176,32.20579,2.9325,3.58828,.61847,7.18088,1.35294,10.65368,2.46126,2.01828,.64412,4.4008,1.39363,5.96954,2.8984,.4194,.40229,.74571,.88363,.7562,1.34551,.0219,.96374,1.52198,.96723,1.5,0-.04005-1.76271-1.65745-2.94562-3.05321-3.72825-2.60226-1.45915-5.58384-2.2826-8.46155-2.99217-9.67028-2.38442-19.74467-3.30931-29.66025-3.94127-13.09263-.83445-26.25229-.8976-39.35473-.2499-10.52963,.52052-21.17,1.39673-31.49828,3.59957-3.26165,.69565-6.55132,1.51638-9.6092,2.87337-1.59189,.70643-3.66715,1.73293-4.30995,3.49419-1.5029,4.11796,6.09879,6.18887,8.649,6.94183,8.92473,2.63505,18.42187,3.58689,27.66193,4.32794,13.12132,1.05233,26.32615,1.25104,39.47881,.78054,11.00846-.3938,22.08831-1.19579,32.93711-3.17776,3.62196-.6617,7.26512-1.44184,10.73579-2.69172,1.96733-.70849,4.27604-1.57702,5.66341-3.22973,.48314-.57555,.80382-1.2457,.82111-2.00662,.02194-.96562-1.47807-.96533-1.5,0Z" style="fill:#fff;"></path><path d="M371.67689,398.95v49.4263c0,.96518,1.5,.96678,1.5,0v-49.4263c0-.96518-1.5-.96678-1.5,0h0Z" style="fill:#fff;"></path><path d="M675.427,429.8763l-9.55236-.03301-22.93665-.07926-27.62019-.09544-24.002-.08294-7.94533-.02745-2.45113-.00847c-.37345-.00129-.92717-.10844-1.28895-.00445-.04717,.01356-.11687-.0004-.16732-.00058l.6476,.37146-10.3518-14.4704-.6476,1.12854h85.1194c.96518,0,.96678-1.5,0-1.5h-85.1194c-.52878,0-.98796,.65277-.6476,1.12854l7.09342,9.91563c1.04831,1.46539,2.03165,3.02139,3.16438,4.42337,.37352,.46231,.66517,.4946,1.18841,.5044,5.6819,.10649,11.37257,.0393,17.05525,.05893l31.22959,.10791,31.00145,.10712,10.76533,.0372c1.7324,.00599,3.50315,.11886,5.23355,.01808,.0767-.00447,.15502,.00054,.23193,.0008,.96531,.00334,.96662-1.49666,0-1.5h0Z" style="fill:#fff;"></path><path d="M647.67409,410.231h-80.26339c-4.28244,0-8.33741-.21991-12.49199,1.04371-4.10856,1.24962-8.2959,3.9516-8.33721,8.71523-.05253,6.05829,4.71377,10.91591,9.78414,13.4329,5.56159,2.76084,11.84076,3.95716,17.9635,4.66788,3.50007,.40628,7.02519,.62713,10.54904,.63142,4.63145,.00564,9.26304,.03812,13.89446,.05734l32.06782,.13311,34.29315,.14234,20.15545,.08366,.96583,.00401c.96533,.00401,.96659-1.49599,0-1.5l-13.9616-.05795-31.60587-.13119-33.83176-.14043-20.60757-.08554c-6.13045-.02545-12.24959-.42108-18.27269-1.6348-5.7067-1.14996-12.18885-2.94961-16.31486-7.32706-3.48083-3.69295-5.42656-10.13773-.63929-13.53904,3.85044-2.7357,8.50941-2.9956,13.02579-2.9956h83.62704c.96518,0,.96678-1.5,0-1.5h0Z" style="fill:#fff;"></path><path d="M248.2085,391.2505s39.6774,8.6708,17.8838,24.7755c-21.7935,16.1046-96.117,7.7944-125.1742,41.7845l35.2062,.0814s-11.9043-10.1359,30.6497-19.0047c42.554-8.8688,84.4893-6.4603,97.3419-24.1509,12.8527-17.6907-.0245-23.4858-.0245-23.4858h-55.8829Z" style="fill:#fff; opacity:.2;"></path><path d="M396.57779,458.4016s11.037-9.0274,35.1348-21.0495c24.0978-12.022,59.9356-21.209,54.9925-46.1016l54.9925-.5141s-11.5811,23.4233-42.9425,30.1234c-22.676,4.8446-47.2402,19.3623-52.8657,23.2164-10.1753,6.9712,1.3502,14.4425,1.3502,14.4425l-50.6618-.1171Z" style="fill:#fff; opacity:.2;"></path></g></g><g id="freepik--Basketball_hoops--inject-76"><g><g><polygon points="46.1263 426.7914 46.1263 428.6702 69.6091 428.6702 107.5187 403.7577 107.5187 401.8338 46.1263 426.7914" style="fill:#263238;"></polygon><g><polygon points="107.5187 401.8338 69.4211 426.7914 46.1263 426.7914 85.5686 401.8338 107.5187 401.8338" style="fill:#263238;"></polygon><polygon points="107.5187 401.8338 69.4211 426.7914 46.1263 426.7914 85.5686 401.8338 107.5187 401.8338" style="fill:#fff; opacity:.3;"></polygon></g><polygon points="101.1046 155.0861 75.9123 155.0861 84.9769 160.881 100.4181 160.881 101.1046 155.0861" style="fill:#263238;"></polygon><polygon points="101.1046 155.0861 75.9123 155.0861 84.9769 160.881 100.4181 160.881 101.1046 155.0861" style="fill:#fff; opacity:.3;"></polygon><polygon points="84.9769 189.8067 100.0062 174.1552 100.0062 181.981 84.9769 197.6324 84.9769 189.8067" style="fill:#263238;"></polygon><polygon points="84.9769 189.8067 100.0062 174.1552 100.0062 181.981 84.9769 197.6324 84.9769 189.8067" style="fill:#fff; opacity:.3;"></polygon><path d="M93.3121,155.0861c.1648,0,2.2258,5.7949,2.2258,5.7949h4.4683v-5.7949h-6.6941Z" style="opacity:.3;"></path><polygon points="95.8005 178.535 95.9863 186.1673 100.0062 181.981 100.0062 174.1552 95.8005 178.535" style="opacity:.3;"></polygon><polygon points="75.9123 155.0861 75.9123 414.3126 84.9769 414.3126 84.9769 160.881 75.9123 155.0861" style="fill:#263238;"></polygon><polygon points="75.9123 155.0861 75.9123 414.3126 84.9769 414.3126 84.9769 160.881 75.9123 155.0861" style="fill:#fff; opacity:.3;"></polygon><path d="M75.72303,155.4099l8.41965,5.75887c.13795,.09436,.35491,.32201,.51873,.3548,.23795,.04763-.09648-.20325-.09021-.22251-.05821,.1786,0,.47565,0,.6607v35.67065c0,.48259,.75,.48339,.75,0v-35.34003c0-.49935,.11451-1.00526-.22507-1.37798-.40054-.43963-1.12266-.76788-1.60997-1.10119l-3.07289-2.10179-4.3117-2.94911c-.3994-.27318-.77496,.37646-.37854,.6476h0Z" style="fill:#263238;"></path><polygon points="100.0062 110.4359 100.0062 206.8105 171.492 220.8199 174.8736 218.8875 174.8736 134.1068 105.5515 110.4359 100.0062 110.4359" style="fill:#FF7C5F;"></polygon><polygon points="105.5515 204.6366 174.8736 218.8875 171.492 220.8199 100.0062 206.8105 105.5515 204.6366" style="opacity:.6;"></polygon><polygon points="108.6176 115.9124 108.9738 202.858 171.8513 215.484 171.8513 136.4452 108.6176 115.9124" style="fill:#FF7C5F;"></polygon><polygon points="108.6176 115.9124 108.9738 202.858 171.8513 215.484 171.8513 136.4452 108.6176 115.9124" style="fill:#fff; opacity:.8;"></polygon><polygon points="105.5515 110.4359 105.5515 204.6366 100.0062 206.8105 100.0062 110.4359 105.5515 110.4359" style="opacity:.3;"></polygon><polygon points="135.6893 190.9815 135.6893 208.2225 144.504 209.9925 144.504 192.9245 135.6893 190.9815" style="fill:#FF7C5F;"></polygon><path d="M151.32666,194.625c-1.16846,0-5.42822-.72803-22.54004-4.71094l-.38672-.08984v-30.69043l23.55273,7.57764-.00293,.36719c-.07715,10.37646-.14502,26.11572-.01416,26.94531l.09229,.27783-.21387,.18799c-.05908,.06494-.12354,.13525-.4873,.13525Zm-21.92676-5.59473c7.52197,1.74707,19.0874,4.33105,21.5249,4.62256-.12744-3.36133-.03223-18.83252,.02197-26.21484l-21.54688-6.93213v28.52441Z" style="fill:#263238;"></path><polygon points="138.4921 192.1177 146.0378 191.3617 146.0378 193.2467 141.1115 193.8672 138.4921 192.1177" style="fill:#FF7C5F;"></polygon><path d="M145.0631,127.7467c-.2979-.0967-36.4455,25.4354-36.4455,25.4354l.1778,12.4458,48.4868-33.9135-12.2191-3.9677Z" style="fill:#fff; opacity:.3;"></path><g><path d="M170.53271,198.13232c-12.23096,0-25.23047-2.10791-25.23047-6.01465s12.99951-6.01465,25.23047-6.01465,25.23047,2.10791,25.23047,6.01465-12.99951,6.01465-25.23047,6.01465Zm0-11.0293c-14.2793,0-24.23047,2.64258-24.23047,5.01465s9.95117,5.01465,24.23047,5.01465,24.23047-2.64258,24.23047-5.01465-9.95117-5.01465-24.23047-5.01465Z" style="fill:#FF7C5F;"></path><path d="M170.96973,211.6543c-8.28467,0-17.08936-1.4375-17.08936-4.10205s8.80469-4.10254,17.08936-4.10254,17.08936,1.43799,17.08936,4.10254-8.80469,4.10205-17.08936,4.10205Zm0-7.45459c-9.62891,0-16.33936,1.7666-16.33936,3.35254,0,1.58545,6.71045,3.35205,16.33936,3.35205s16.33936-1.7666,16.33936-3.35205c0-1.58594-6.71045-3.35254-16.33936-3.35254Z" style="fill:#263238;"></path><path d="M170.77881,225.38867c-4.16113,0-10.35205-.69238-10.35205-2.6001,0-1.90723,6.19092-2.59961,10.35205-2.59961s10.35205,.69238,10.35205,2.59961c0,1.90771-6.19092,2.6001-10.35205,2.6001Zm0-4.44971c-6.3042,0-9.60205,1.2041-9.60205,1.84961s3.29785,1.8501,9.60205,1.8501,9.60205-1.20459,9.60205-1.8501-3.29785-1.84961-9.60205-1.84961Z" style="fill:#263238;"></path><g><path d="M160.38721,230.45557c-.01709,0-.03467-.00098-.05176-.00342-.20557-.02881-.34863-.21777-.32031-.42285,.00439-.02979,.41162-3.01611,.41162-6.86328,0-3.02734-8.86279-20.37305-13.54932-29.12158-.09766-.18262-.0293-.41016,.15332-.50781,.18408-.09766,.41016-.02881,.50781,.15332,.55664,1.03955,13.63818,25.50635,13.63818,29.47607,0,3.90234-.41455,6.93604-.41846,6.96582-.02637,.18799-.18701,.32373-.37109,.32373Z" style="fill:#263238;"></path><path d="M164.43506,230.45557l-.02197-.00049c-.20703-.01221-.36475-.18945-.35303-.396,.00439-.07227,.41113-7.24609-.09912-10.30615-.2334-1.40088-7.27295-21.00293-10.9624-31.17188-.0708-.19482,.02979-.40967,.22461-.48047,.19678-.06934,.41016,.03076,.48047,.22461,.43652,1.20312,10.69434,29.48633,10.99756,31.30469,.52344,3.14258,.125,10.17432,.10791,10.47217-.01172,.19971-.17676,.35352-.37402,.35352Z" style="fill:#263238;"></path><path d="M180.51074,229.95703l-.02783-.00098c-.20654-.01514-.36182-.19482-.34668-.40137,.00244-.03369,.24561-3.37891,.24561-7.24023,0-3.9751,13.96143-28.44531,14.55566-29.48486,.10205-.18018,.33057-.24268,.51172-.13965,.17969,.10303,.24219,.33203,.13965,.51172-5.00049,8.74756-14.45703,26.08984-14.45703,29.11279,0,3.89014-.24512,7.26172-.24756,7.29492-.01465,.19727-.1792,.34766-.37354,.34766Z" style="fill:#263238;"></path><path d="M176.92236,230.2583c-.20264,0-.36914-.16113-.375-.36475-.00879-.32422-.21191-7.979,.31055-11.11572,.30225-1.81396,9.69482-29.64746,10.09424-30.83154,.06689-.19531,.27734-.30029,.47559-.23535,.19629,.06641,.30127,.2793,.23535,.47559-3.37891,10.00928-9.83105,29.31006-10.06494,30.71436-.51123,3.06543-.30322,10.89355-.30078,10.97217,.00537,.20703-.15771,.37939-.36475,.38525h-.01025Z" style="fill:#263238;"></path><path d="M168.78955,230.80859c-.19727,0-.3623-.15381-.37402-.35352-.00635-.11523-.66992-11.55957-.79883-14.27539-.12891-2.70166-3.10547-29.12158-3.13525-29.38818-.02344-.20557,.12451-.3916,.33057-.41455,.20312-.01611,.3916,.12451,.41455,.33057,.12305,1.08936,3.00928,26.71094,3.13916,29.43652,.12891,2.71191,.79199,14.15283,.79883,14.26807,.01172,.20654-.146,.38379-.35303,.396l-.02197,.00049Z" style="fill:#263238;"></path><path d="M173.12158,230.2583h-.0127c-.20703-.00732-.36914-.18066-.3623-.3877,.00342-.10156,.33838-10.18066-.15723-12.7876-.51465-2.71045,3.5708-29.40186,3.74512-30.53662,.03125-.20459,.229-.34229,.42725-.31396,.20508,.03125,.34521,.22266,.31396,.42773-1.46875,9.56934-4.14209,28.21436-3.74902,30.2832,.51025,2.68799,.18408,12.53467,.16992,12.95264-.00684,.20264-.17334,.3623-.375,.3623Z" style="fill:#263238;"></path></g></g><path d="M108.8679,176.9992l55.7258-42.9107,7.2576,2.3567v6.2599s-63.5396,49.4518-63.2337,48.6566,.2503-14.3625,.2503-14.3625Z" style="fill:#fff; opacity:.3;"></path><polygon points="75.9123 414.3126 71.9325 410.4622 75.9123 407.944 75.9123 414.3126" style="opacity:.3;"></polygon></g><g><polygon points="718.45709 432.268 718.45709 434.1468 694.97439 434.1468 657.06469 409.2343 657.06469 407.3104 718.45709 432.268" style="fill:#263238;"></polygon><g><polygon points="657.06469 407.3104 695.16229 432.268 718.45709 432.268 679.01479 407.3104 657.06469 407.3104" style="fill:#263238;"></polygon><polygon points="657.06469 407.3104 695.16229 432.268 718.45709 432.268 679.01479 407.3104 657.06469 407.3104" style="fill:#fff; opacity:.3;"></polygon></g><polygon points="663.47879 160.5627 688.67109 160.5627 679.60649 166.3575 664.16529 166.3575 663.47879 160.5627" style="fill:#263238;"></polygon><polygon points="663.47879 160.5627 688.67109 160.5627 679.60649 166.3575 664.16529 166.3575 663.47879 160.5627" style="fill:#fff; opacity:.3;"></polygon><polygon points="679.60649 195.2833 664.57719 179.6318 664.57719 187.4575 679.60649 203.109 679.60649 195.2833" style="fill:#263238;"></polygon><polygon points="679.60649 195.2833 664.57719 179.6318 664.57719 187.4575 679.60649 203.109 679.60649 195.2833" style="fill:#fff; opacity:.3;"></polygon><path d="M671.27139,160.5627c-.1649,0-2.2259,5.7948-2.2259,5.7948h-4.4683v-5.7948h6.6942Z" style="opacity:.3;"></path><polygon points="668.78289 184.0116 668.59709 191.6439 664.57719 187.4575 664.57719 179.6318 668.78289 184.0116" style="opacity:.3;"></polygon><polygon points="688.67109 160.5627 688.67109 419.7892 679.60649 419.7892 679.60649 166.3575 688.67109 160.5627" style="fill:#263238;"></polygon><polygon points="688.67109 160.5627 688.67109 419.7892 679.60649 419.7892 679.60649 166.3575 688.67109 160.5627" style="fill:#fff; opacity:.3;"></polygon><path d="M688.48182,160.2389l-8.52517,5.83104c-.53413,.36533-.69017,.50052-.69446,1.12942-.00728,1.06585,0,2.13201,0,3.19788v32.71176c0,.48259,.75,.48339,.75,0v-35.05375c0-.31792,.06357-.71057,0-1.02273-.01551-.07616,.02172-.17019,0-.24484-.04179-.14363-.32984,.26916-.11082,.22658,.52998-.10302,1.3035-.89156,1.74006-1.19017l3.00967-2.05855,4.20926-2.87905c.39599-.27085,.02126-.92106-.37854-.6476h0Z" style="fill:#263238;"></path><polygon points="664.57719 115.9124 664.57719 212.2871 593.09139 226.2964 589.70979 224.3641 589.70979 139.5834 659.03189 115.9124 664.57719 115.9124" style="fill:#FF7C5F;"></polygon><polygon points="659.03189 210.1132 589.70979 224.3641 593.09139 226.2964 664.57719 212.2871 659.03189 210.1132" style="opacity:.6;"></polygon><polygon points="655.96579 121.389 655.60959 208.3345 592.73209 220.9605 592.73209 141.9217 655.96579 121.389" style="fill:#FF7C5F;"></polygon><polygon points="655.96579 121.389 655.60959 208.3345 592.73209 220.9605 592.73209 141.9217 655.96579 121.389" style="fill:#fff; opacity:.8;"></polygon><polygon points="659.03189 115.9124 659.03189 210.1132 664.57719 212.2871 664.57719 115.9124 659.03189 115.9124" style="opacity:.3;"></polygon><polygon points="628.89409 196.458 628.89409 213.6991 620.07939 215.4691 620.07939 198.4011 628.89409 196.458" style="fill:#FF7C5F;"></polygon><path d="M613.25684,200.10156c-.36426,0-.42871-.07031-.4873-.13525l-.19727-.21631,.08789-.29834c.11816-.78125,.05078-16.52002-.02637-26.89648l-.00293-.36719,23.55273-7.57764v30.69043l-.38672,.08984c-17.11133,3.98291-21.37207,4.71094-22.54004,4.71094Zm.37988-27.18701c.05371,7.38232,.14941,22.85352,.02148,26.21484,2.43652-.29102,14.00293-2.87549,21.52539-4.62256v-28.52441l-21.54688,6.93213Z" style="fill:#263238;"></path><polygon points="626.09129 197.5942 618.54559 196.8383 618.54559 198.7232 623.472 199.3438 626.09129 197.5942" style="fill:#FF7C5F;"></polygon><path d="M631.43319,129.355c-.2979-.0967-38.7,29.3037-38.7,29.3037l.1777,12.4457,61.0188-49.0542-22.4965,7.3048Z" style="fill:#fff; opacity:.3;"></path><g><path d="M594.05078,203.60889c-12.23145,0-25.23047-2.10791-25.23047-6.01465s12.99902-6.01465,25.23047-6.01465,25.23047,2.10791,25.23047,6.01465-12.99902,6.01465-25.23047,6.01465Zm0-11.0293c-14.2793,0-24.23047,2.64258-24.23047,5.01465s9.95117,5.01465,24.23047,5.01465,24.23047-2.64258,24.23047-5.01465-9.95117-5.01465-24.23047-5.01465Z" style="fill:#FF7C5F;"></path><path d="M593.61328,217.13086c-8.28418,0-17.08887-1.4375-17.08887-4.10205s8.80469-4.10254,17.08887-4.10254c8.28516,0,17.08984,1.43799,17.08984,4.10254s-8.80469,4.10205-17.08984,4.10205Zm0-7.45459c-9.62891,0-16.33887,1.7666-16.33887,3.35254,0,1.58545,6.70996,3.35205,16.33887,3.35205s16.33984-1.7666,16.33984-3.35205c0-1.58594-6.71094-3.35254-16.33984-3.35254Z" style="fill:#263238;"></path><path d="M593.80469,230.86523c-4.16113,0-10.35254-.69238-10.35254-2.6001,0-1.90723,6.19141-2.59961,10.35254-2.59961s10.35156,.69238,10.35156,2.59961c0,1.90771-6.19043,2.6001-10.35156,2.6001Zm0-4.44971c-6.30469,0-9.60254,1.2041-9.60254,1.84961s3.29785,1.8501,9.60254,1.8501c6.30371,0,9.60156-1.20459,9.60156-1.8501s-3.29785-1.84961-9.60156-1.84961Z" style="fill:#263238;"></path><g><path d="M604.19629,235.93213c-.18457,0-.3457-.13574-.37109-.32373-.00488-.02979-.41895-3.06348-.41895-6.96582,0-3.96973,13.08203-28.43652,13.63965-29.47607,.09766-.18311,.32812-.25098,.50684-.15332,.18262,.09766,.25195,.3252,.15332,.50781-4.68652,8.74854-13.5498,26.09424-13.5498,29.12158,0,3.84717,.40723,6.8335,.41113,6.86328,.02832,.20508-.11426,.39404-.31934,.42285-.01758,.00244-.03516,.00342-.05176,.00342Z" style="fill:#263238;"></path><path d="M600.14941,235.93213c-.19727,0-.36328-.15381-.37402-.35352-.01758-.29785-.41699-7.32959,.10645-10.47217,.30273-1.81836,10.56152-30.10156,10.99805-31.30469,.07129-.19482,.28711-.29492,.48047-.22461,.19434,.0708,.29492,.28564,.22461,.48047-3.68945,10.16895-10.72949,29.771-10.96289,31.17188-.50977,3.06006-.10254,10.23389-.09863,10.30615,.0127,.20654-.14551,.38379-.35254,.396l-.02148,.00049Z" style="fill:#263238;"></path><path d="M584.07324,235.43359c-.19531,0-.35938-.15039-.37402-.34717-.00293-.03369-.24805-3.40527-.24805-7.29541,0-3.02295-9.45605-20.36523-14.45605-29.11279-.10352-.17969-.04102-.40869,.13867-.51172,.18066-.10107,.40918-.04102,.51172,.13965,.59473,1.03955,14.55566,25.50977,14.55566,29.48486,0,3.86133,.24316,7.20654,.24609,7.23975,.01562,.20654-.13965,.38672-.34668,.40186l-.02734,.00098Z" style="fill:#263238;"></path><path d="M587.66113,235.73486h-.01074c-.20703-.00586-.37012-.17822-.36426-.38525,.00195-.07861,.21094-7.90625-.30078-10.97217-.2334-1.40381-6.68555-20.70508-10.06445-30.71436-.06641-.19629,.03906-.40918,.23535-.47559,.19531-.06445,.40918,.03906,.47559,.23535,.39941,1.18408,9.79102,29.01807,10.09375,30.83154,.52344,3.13672,.31934,10.7915,.31055,11.11572-.00586,.20361-.17285,.36475-.375,.36475Z" style="fill:#263238;"></path><path d="M595.79297,236.28516l-.02148-.00049c-.20703-.01221-.36523-.18945-.35254-.396,.00586-.11572,.66992-11.55615,.79883-14.26807,.12988-2.72559,3.0166-28.34717,3.13867-29.43652,.02441-.20508,.20117-.35303,.41504-.33057,.20605,.02295,.35352,.20898,.33105,.41455-.03027,.2666-3.00781,26.68652-3.13477,29.38818-.12988,2.71582-.79395,14.16016-.80078,14.27539-.01074,.19971-.17676,.35352-.37402,.35352Z" style="fill:#263238;"></path><path d="M591.46191,235.73486c-.20117,0-.36816-.15967-.375-.3623-.01367-.41797-.34082-10.26465,.16992-12.95264,.39258-2.06836-2.28027-20.71338-3.74902-30.28369-.03125-.20459,.10938-.396,.31445-.42725,.20117-.03418,.39551,.10938,.42773,.31396,.17383,1.13477,4.25781,27.82666,3.74316,30.53662-.49512,2.60742-.16016,12.68604-.15625,12.7876,.00684,.20703-.15527,.38037-.3623,.3877h-.0127Z" style="fill:#263238;"></path></g></g><path d="M592.98349,182.4758l62.9484-52.8014,.035,12.2473v6.26s-63.5396,49.4518-63.2337,48.6566c.30581-.7952,.2503-14.3625,.2503-14.3625Z" style="fill:#fff; opacity:.3;"></path><polygon points="688.67109 419.7892 692.65089 415.9388 688.67109 413.4205 688.67109 419.7892" style="opacity:.3;"></polygon></g></g></g></svg>
