<svg viewBox="0 0 400 300" xmlns="http://www.w3.org/2000/svg"><path d="m158.29 185.61v22.95h-65v-22.95a33 33 0 0 1 12.43-26.2 27.87 27.87 0 0 1 17.13-5.94h5.92a27.86 27.86 0 0 1 17.12 5.94 33 33 0 0 1 12.4 26.2z" fill="#ffc9b0"/><path d="m158.29 209.56h-65a1 1 0 0 1 -1-1v-22.95a34.15 34.15 0 0 1 12.82-27 28.76 28.76 0 0 1 17.74-6.15h5.92a28.73 28.73 0 0 1 17.73 6.15 34.16 34.16 0 0 1 12.83 27v22.95a1 1 0 0 1 -1.04 1zm-64-2h63v-21.95a32.15 32.15 0 0 0 -12-25.41 26.81 26.81 0 0 0 -16.51-5.73h-5.92a26.82 26.82 0 0 0 -16.52 5.73 32.14 32.14 0 0 0 -12 25.41z" fill="#093f68"/><path d="m145.85 159.41v49.15h-40.17v-49.15a28.43 28.43 0 0 1 7.86-4.32 27.25 27.25 0 0 1 9.27-1.62h5.92a27.3 27.3 0 0 1 9.27 1.62 28.52 28.52 0 0 1 7.85 4.32z" fill="#68e1fd"/><path d="m145.85 209.56h-40.17a1 1 0 0 1 -1-1v-49.15a1 1 0 0 1 .39-.79 29.19 29.19 0 0 1 8.13-4.47 28.1 28.1 0 0 1 9.61-1.68h5.92a28.18 28.18 0 0 1 9.61 1.68 29.13 29.13 0 0 1 8.12 4.47 1 1 0 0 1 .39.79v49.15a1 1 0 0 1 -1 1zm-39.17-2h38.17v-47.66a27.38 27.38 0 0 0 -7.19-3.87 26.19 26.19 0 0 0 -8.93-1.56h-5.92a26.21 26.21 0 0 0 -8.94 1.56 27.54 27.54 0 0 0 -7.19 3.87z" fill="#093f68"/><path d="m138 155.09c-.77 8-6 14.25-12.23 14.25s-11.46-6.22-12.23-14.25a27.25 27.25 0 0 1 9.27-1.62h5.92a27.3 27.3 0 0 1 9.27 1.62z" fill="#ffc9b0"/><path d="m125.77 170.34c-6.71 0-12.4-6.52-13.23-15.16a1 1 0 0 1 .66-1 28.1 28.1 0 0 1 9.61-1.68h5.92a28.18 28.18 0 0 1 9.61 1.68 1 1 0 0 1 .65 1c-.83 8.64-6.51 15.16-13.22 15.16zm-11.15-14.57c1 7.22 5.67 12.57 11.15 12.57s10.17-5.35 11.14-12.57a26.41 26.41 0 0 0 -8.18-1.3h-5.92a26.47 26.47 0 0 0 -8.19 1.3z" fill="#093f68"/><path d="m120.98 155.56v-11.69h8.87v11.69" fill="#ffc9b0"/><path d="m129.85 156.56a1 1 0 0 1 -1-1v-10.69h-6.85v10.69a1 1 0 0 1 -2 0v-11.69a1 1 0 0 1 1-1h8.87a1 1 0 0 1 1 1v11.69a1 1 0 0 1 -1.02 1z" fill="#093f68"/><path d="m124.1 80.81a8.06 8.06 0 0 1 3.9 4.19 6.65 6.65 0 0 1 5.66-2.77 7.65 7.65 0 0 1 3.69 1.06c1.06.66 1.65 2 2.71 2.58s2.06.17 3.29.14a17 17 0 0 1 5.14.84 8.34 8.34 0 0 1 4.39 2.45c1.19 1.53 1.12 3.51.87 5.32 5.69-2 7.34 6.77 4.53 10.08a8.75 8.75 0 0 1 -1.69 12.8c1.58 1.25 1 3.74.33 5.63-1.32 3.57-1.57 6.81-5.62 7.13-2.14.17-4.36 0-6.5 0h-48.54c.86 0-2.34-4.95-2.43-5.16a9.15 9.15 0 0 1 -.11-7.17c-3.79-2.82-3.74-9.4.08-12.17a9.8 9.8 0 0 1 5-12.88c-.46-3.19 2-6.26 5-7.49 3.19-1.31 6.37-.75 9.67-.64.8-3 4.52-4.86 7.45-4.74a7.84 7.84 0 0 1 3.18.8z" fill="#725858"/><path d="m149.13 131.31c-.74 0-1.48 0-2.21 0s-1.43 0-2.13 0h-48.53a1 1 0 0 1 -.92-1.38 26.13 26.13 0 0 0 -2.09-3.78c-.2-.33-.32-.55-.34-.6a10.35 10.35 0 0 1 -.38-7.26 9 9 0 0 1 0-12.77 10.89 10.89 0 0 1 5.27-13.3c-.1-3.54 2.66-6.55 5.65-7.78 2.77-1.15 5.51-1 8.16-.82l1.19.07c1.3-3.08 5.12-4.85 8.19-4.71a8.85 8.85 0 0 1 3.56.94 9.26 9.26 0 0 1 3.65 3.28 7.84 7.84 0 0 1 5.47-2 8.67 8.67 0 0 1 4.19 1.21 6.55 6.55 0 0 1 1.56 1.49 4.69 4.69 0 0 0 1.1 1.06 2.55 2.55 0 0 0 1.66.13 9.8 9.8 0 0 1 1.14-.11 17.49 17.49 0 0 1 5.44.88 9.23 9.23 0 0 1 4.9 2.79 6.73 6.73 0 0 1 1.21 4.67 4.69 4.69 0 0 1 4.37 2.15 9.24 9.24 0 0 1 .3 9.15 9.88 9.88 0 0 1 -1.5 13c.81 1.34.74 3.28-.19 5.81-.22.59-.41 1.17-.59 1.73-.91 2.82-1.86 5.73-5.89 6-.74.13-1.49.15-2.24.15zm-51.89-2.08h47.55 2.18a39.88 39.88 0 0 0 4.24 0c2.59-.2 3.17-1.66 4.15-4.67.19-.58.39-1.19.61-1.81.59-1.58 1.06-3.65 0-4.5a1 1 0 0 1 -.38-.84 1 1 0 0 1 .47-.79 7.76 7.76 0 0 0 1.49-11.27 1 1 0 0 1 0-1.33c1.44-1.7 1.48-5.38.08-7.42a2.79 2.79 0 0 0 -3.52-1.07 1 1 0 0 1 -1-.17 1 1 0 0 1 -.35-.91c.22-1.63.3-3.32-.67-4.57a7.55 7.55 0 0 0 -3.89-2.1 15.38 15.38 0 0 0 -4.83-.8 8.44 8.44 0 0 0 -.92.09 4.32 4.32 0 0 1 -2.86-.35 5.85 5.85 0 0 1 -1.69-1.54 5.18 5.18 0 0 0 -1.08-1.07 6.73 6.73 0 0 0 -3.19-.91 5.62 5.62 0 0 0 -4.8 2.33 1 1 0 0 1 -.93.43 1 1 0 0 1 -.83-.62 7.06 7.06 0 0 0 -3.4-3.63 6.7 6.7 0 0 0 -2.74-.73c-2.5-.09-5.78 1.51-6.44 4a1 1 0 0 1 -1 .74c-.66 0-1.32-.06-2-.1-2.54-.15-4.93-.3-7.28.67s-4.78 3.59-4.37 6.42a1 1 0 0 1 -.63 1.08 8.78 8.78 0 0 0 -4.51 11.5 1 1 0 0 1 -.31 1.25 6.93 6.93 0 0 0 -.08 10.56 1 1 0 0 1 .33 1.19 8.22 8.22 0 0 0 .1 6.38 3.55 3.55 0 0 1 .26.33 26.64 26.64 0 0 1 2.24 4.23z" fill="#093f68"/><ellipse cx="102.82" cy="127.78" fill="#ffc9b0" rx="7.9" ry="7.23"/><path d="m102.82 136c-4.9 0-8.89-3.69-8.89-8.22s4-8.23 8.89-8.23 8.9 3.69 8.9 8.23-3.99 8.22-8.9 8.22zm0-14.45c-3.8 0-6.89 2.79-6.89 6.23s3.07 6.22 6.89 6.22 6.9-2.79 6.9-6.22-3.09-6.23-6.9-6.23z" fill="#093f68"/><ellipse cx="148.86" cy="127.78" fill="#ffc9b0" rx="7.9" ry="7.23"/><path d="m148.86 136c-4.9 0-8.89-3.69-8.89-8.22s4-8.23 8.89-8.23 8.9 3.69 8.9 8.23-3.99 8.22-8.9 8.22zm0-14.45c-3.8 0-6.89 2.79-6.89 6.23s3.09 6.22 6.89 6.22 6.9-2.79 6.9-6.22-3.09-6.23-6.9-6.23z" fill="#093f68"/><path d="m126.07 151.33a25.29 25.29 0 0 1 -24.65-19.57c-1.08-4.68-.63-8.82-.18-13.59a6.6 6.6 0 0 1 .6-2.6c-.27.49 5.29-.72 5.85-1a7.6 7.6 0 0 0 3.88-6c1.53 1.49 4.1 1.43 6 .37a12.43 12.43 0 0 0 4.2-4.74 7.15 7.15 0 0 0 5.32 4.86 7.43 7.43 0 0 0 6.76-2.32c-.1 2.79 1.92 4.79 4.78 5a6.14 6.14 0 0 0 5.55-2.64 6.12 6.12 0 0 0 7.54 5.64 54.48 54.48 0 0 1 .31 6.11c-.14 1.72-.63 3.42-.63 5.19a25.29 25.29 0 0 1 -25.33 25.29z" fill="#ffc9b0"/><path d="m126.07 152.33a26.3 26.3 0 0 1 -25.62-20.33c-1.08-4.63-.7-8.64-.27-13.29l.06-.62a7.47 7.47 0 0 1 .72-3 1 1 0 0 1 1.34-.42 29.06 29.06 0 0 0 4.93-1 6.58 6.58 0 0 0 3.34-5.17 1 1 0 0 1 .64-.87 1 1 0 0 1 1.05.22c1.24 1.2 3.38 1 4.77.21a11.52 11.52 0 0 0 3.83-4.37 1 1 0 0 1 1.83.21 6.14 6.14 0 0 0 4.56 4.17 6.42 6.42 0 0 0 5.85-2 1 1 0 0 1 1.11-.22 1 1 0 0 1 .6 1c-.08 2.18 1.48 3.79 3.87 4a5.17 5.17 0 0 0 4.63-2.21 1 1 0 0 1 1.83.51 5.11 5.11 0 0 0 6.31 4.71 1 1 0 0 1 .84.18 1 1 0 0 1 .39.76c0 .72.1 1.45.16 2.18a22.73 22.73 0 0 1 .15 4.05c-.06.76-.19 1.5-.31 2.21a18.37 18.37 0 0 0 -.32 2.9 26.32 26.32 0 0 1 -26.29 26.19zm-23.6-35.66a10.15 10.15 0 0 0 -.24 1.59v.62c-.42 4.47-.78 8.33.22 12.65a24.24 24.24 0 0 0 4.81 9.83 24.3 24.3 0 0 0 43.1-15.36 19.59 19.59 0 0 1 .35-3.22c.12-.71.23-1.38.28-2a21.33 21.33 0 0 0 -.14-3.71c0-.39-.07-.78-.1-1.17a7.1 7.1 0 0 1 -7.19-4.7 7.14 7.14 0 0 1 -5.05 1.55 6 6 0 0 1 -5.45-4.1 8.05 8.05 0 0 1 -6.21 1.36 8.21 8.21 0 0 1 -5.26-3.74 11.06 11.06 0 0 1 -3.57 3.5 6.61 6.61 0 0 1 -5.73.45 8.89 8.89 0 0 1 -4.09 5.18 20.42 20.42 0 0 1 -3.32.9 18.38 18.38 0 0 1 -2.41.37z" fill="#093f68"/><path d="m126 137.23a15.1 15.1 0 0 1 -2.33-.19 1 1 0 0 1 -.81-1.16 1 1 0 0 1 1.15-.81 10.9 10.9 0 0 0 3.17.07 17.61 17.61 0 0 0 -1.95-5.18 1 1 0 0 1 1.77-.96c1 2 2.69 5.58 2 7.12a1.48 1.48 0 0 1 -1 .87 8.2 8.2 0 0 1 -2 .24z" fill="#093f68"/><path d="m128.58 183.06h-12v-5.11h19v4.63l-9.37 16h-7.11z" fill="#093f68"/><circle cx="114.58" cy="126.84" fill="#093f68" r="2.02"/><circle cx="137.39" cy="126.84" fill="#093f68" r="2.02"/><path d="m120.42 120.8h-.11l-9.63-.53a2 2 0 1 1 .22-4l9.63.52a2 2 0 0 1 -.11 4z" fill="#093f68"/><path d="m132.36 120.8a2 2 0 0 1 -.11-4l9.63-.52a2 2 0 1 1 .22 4l-9.63.53z" fill="#093f68"/><path d="m125.89 144.2a12.42 12.42 0 0 1 -4.81-.92 10.63 10.63 0 0 1 -4.28-3.1 1 1 0 0 1 1.6-1.2c.19.26 4.75 6.08 14.53 1.45a1 1 0 0 1 .86 1.81 18.39 18.39 0 0 1 -7.9 1.96z" fill="#093f68"/><path d="m234.2 197.07v23h-65v-23a33 33 0 0 1 12.44-26.2 27.84 27.84 0 0 1 17.12-5.94h5.92a27.89 27.89 0 0 1 17.13 5.94 33 33 0 0 1 12.39 26.2z" fill="#e28362"/><path d="m234.2 221h-65a1 1 0 0 1 -1-1v-23a34.18 34.18 0 0 1 12.82-27 28.84 28.84 0 0 1 17.74-6.15h5.92a28.82 28.82 0 0 1 17.74 6.15 34.15 34.15 0 0 1 12.82 27v23a1 1 0 0 1 -1.04 1zm-64-2h63v-22a32.11 32.11 0 0 0 -12-25.4 26.78 26.78 0 0 0 -16.51-5.74h-5.92a26.82 26.82 0 0 0 -16.51 5.74 32.14 32.14 0 0 0 -12.05 25.4z" fill="#093f68"/><path d="m221.77 170.87v49.13h-40.17v-49.13a28.52 28.52 0 0 1 7.85-4.32 27.25 27.25 0 0 1 9.27-1.62h5.92a27.25 27.25 0 0 1 9.27 1.62 28.58 28.58 0 0 1 7.86 4.32z" fill="#68e1fd"/><path d="m221.77 221h-40.17a1 1 0 0 1 -1-1v-49.13a1 1 0 0 1 .38-.79 29.85 29.85 0 0 1 8.13-4.47 28.43 28.43 0 0 1 9.61-1.68h5.92a28.38 28.38 0 0 1 9.61 1.68 29.71 29.71 0 0 1 8.13 4.47 1 1 0 0 1 .39.79v49.13a1 1 0 0 1 -1 1zm-39.17-2h38.17v-47.63a27.54 27.54 0 0 0 -7.19-3.87 26.26 26.26 0 0 0 -8.94-1.57h-5.92a26.44 26.44 0 0 0 -8.93 1.56 27.71 27.71 0 0 0 -7.19 3.88z" fill="#093f68"/><path d="m213.91 166.55c-.77 8-6 14.25-12.23 14.25s-11.46-6.22-12.23-14.25a27.25 27.25 0 0 1 9.27-1.62h5.92a27.25 27.25 0 0 1 9.27 1.62z" fill="#e28362"/><path d="m201.68 181.8c-6.71 0-12.39-6.51-13.23-15.15a1 1 0 0 1 .66-1 28.43 28.43 0 0 1 9.61-1.68h5.92a28.38 28.38 0 0 1 9.61 1.68 1 1 0 0 1 .66 1c-.83 8.64-6.52 15.15-13.23 15.15zm-11.14-14.56c1 7.22 5.66 12.56 11.14 12.56s10.17-5.34 11.15-12.56a26.19 26.19 0 0 0 -8.19-1.31h-5.92a26.08 26.08 0 0 0 -8.18 1.31z" fill="#093f68"/><path d="m196.89 167.02v-11.68h8.88v11.68" fill="#e28362"/><path d="m205.77 168a1 1 0 0 1 -1-1v-10.66h-6.88v10.66a1 1 0 0 1 -2 0v-11.66a1 1 0 0 1 1-1h8.88a1 1 0 0 1 1 1v11.66a1 1 0 0 1 -1 1z" fill="#093f68"/><ellipse cx="226.01" cy="131.97" fill="#e28362" rx="6.36" ry="7.61"/><path d="m226 140.58c-4.06 0-7.37-3.86-7.37-8.61s3.31-8.61 7.37-8.61 7.36 3.86 7.36 8.61-3.29 8.61-7.36 8.61zm0-15.22c-3 0-5.37 3-5.37 6.61s2.41 6.61 5.37 6.61 5.36-3 5.36-6.61-2.36-6.61-5.36-6.61z" fill="#093f68"/><ellipse cx="177.35" cy="131.97" fill="#e28362" rx="6.36" ry="7.61"/><path d="m177.35 140.58c-4.06 0-7.36-3.86-7.36-8.61s3.3-8.61 7.36-8.61 7.37 3.86 7.37 8.61-3.31 8.61-7.37 8.61zm0-15.22c-2.95 0-5.36 3-5.36 6.61s2.41 6.61 5.36 6.61 5.37-3 5.37-6.61-2.41-6.61-5.37-6.61z" fill="#093f68"/><path d="m200 95.35h3.29a20.88 20.88 0 0 1 20.88 20.88v14.06a0 0 0 0 1 0 0h-45.05a0 0 0 0 1 0 0v-14.06a20.88 20.88 0 0 1 20.88-20.88z" fill="#725858"/><path d="m224.17 131.29h-45a1 1 0 0 1 -1-1v-14.06a21.9 21.9 0 0 1 21.83-21.88h3.29a21.9 21.9 0 0 1 21.88 21.88v14.06a1 1 0 0 1 -1 1zm-44-2h43v-13.06a19.9 19.9 0 0 0 -19.88-19.88h-3.29a19.9 19.9 0 0 0 -19.88 19.88z" fill="#093f68"/><path d="m224.24 124.53v16.05a22.56 22.56 0 0 1 -22.56 22.56 22.56 22.56 0 0 1 -22.56-22.56v-16.05c0-25.17 9.36-7.54 22.56-7.54s22.56-17.63 22.56 7.54z" fill="#e28362"/><g fill="#093f68"><path d="m201.68 164.14a23.59 23.59 0 0 1 -23.56-23.56v-16.05c0-8.34 1-12.52 3.35-14s5.31.07 8.77 1.81 7.2 3.62 11.44 3.62 8.07-1.92 11.44-3.62 6.45-3.24 8.77-1.81 3.35 5.63 3.35 14v16.05a23.59 23.59 0 0 1 -23.56 23.56zm-18.08-52.14a2.11 2.11 0 0 0 -1.08.27c-1.62 1-2.4 5-2.4 12.27v16.05a21.56 21.56 0 0 0 43.12 0v-16.06c0-7.26-.78-11.27-2.4-12.27-1.37-.84-3.89.43-6.82 1.9-3.4 1.71-7.62 3.83-12.34 3.83s-8.94-2.12-12.34-3.83c-2.28-1.16-4.34-2.16-5.74-2.16z"/><path d="m224.24 134.75v5.83a22.56 22.56 0 1 1 -45.12 0v-5.83a22.49 22.49 0 0 0 6.61 15.95 22.11 22.11 0 0 0 4.91 3.73c1.18-3.92 5.74-8.5 11-8.5s9.86 4.58 11 8.5a22.54 22.54 0 0 0 11.6-19.68z"/><path d="m201.68 164.15a23.58 23.58 0 0 1 -23.56-23.57v-5.83a1 1 0 0 1 2 0 21.37 21.37 0 0 0 6.32 15.25 21 21 0 0 0 3.68 3c1.78-4.06 6.37-8 11.56-8s9.78 4 11.56 8a21.62 21.62 0 0 0 10-18.21 1 1 0 0 1 2 0v5.83a23.6 23.6 0 0 1 -23.56 23.53zm-21-18.73a21.56 21.56 0 0 0 42 0 23.49 23.49 0 0 1 -9.49 9.92 1 1 0 0 1 -1.45-.58c-1.13-3.76-5.45-7.79-10.08-7.79s-9 4-10.08 7.79a1 1 0 0 1 -.58.64 1 1 0 0 1 -.87-.06 23.14 23.14 0 0 1 -5.13-3.89 23.94 23.94 0 0 1 -4.34-6.03z"/><path d="m202.92 143.67a5.91 5.91 0 0 1 -4-1.66 1 1 0 0 1 1.44-1.38 3.79 3.79 0 0 0 3.78.83c.63-.63-.69-5.45-3.35-10.72a1 1 0 0 1 .44-1.35 1 1 0 0 1 1.34.45c.79 1.55 4.63 9.43 3.46 12.31a2.06 2.06 0 0 1 -1.25 1.2 5.6 5.6 0 0 1 -1.86.32z"/><path d="m195.64 198.75v-.06c-1.87-1-2.83-2.35-2.83-3.86 0-3.6 3.6-5.74 8.89-5.74s8.82 2.14 8.82 5.74c0 1.54-1 2.82-2.82 3.86v.06a5.56 5.56 0 0 1 4.18 5.2c.09 3.65-4.66 6.38-10.18 6.32s-10.31-2.67-10.22-6.32a5.6 5.6 0 0 1 4.16-5.2zm6.06 2.25c-2.53 0-4.1.77-4.1 2s1.57 2.07 4.1 2.07 4.07-.74 4.07-2.07-1.58-2-4.07-2zm0-7.82c-2 0-3.18.69-3.18 1.9s1.25 1.82 3.18 1.82 3.14-.75 3.14-1.82-1.21-1.86-3.14-1.86z"/><circle cx="190.56" cy="131.08" r="2.02"/><circle cx="213.37" cy="131.08" r="2.02"/><path d="m196.41 125.05h-.11l-9.64-.53a2 2 0 0 1 -1.89-2.1 2 2 0 0 1 2.11-1.89l9.63.53a2 2 0 0 1 -.1 4z"/><path d="m208.34 125.05a2 2 0 0 1 -.1-4l9.63-.53a2 2 0 0 1 .22 4l-9.64.53z"/></g><path d="m207.93 153.3c0 1.64-2.8 4.45-6.25 4.45s-6.25-2.81-6.25-4.45 2.8-1.27 6.25-1.27 6.25-.37 6.25 1.27z" fill="#ffc9b0"/><path d="m201.68 158.75c-4 0-7.25-3.3-7.25-5.45a2 2 0 0 1 .58-1.44c.94-.92 2.67-.89 5.07-.85h3.21c2.4 0 4.12-.07 5.06.85a2 2 0 0 1 .58 1.44c0 2.15-3.25 5.45-7.25 5.45zm-2.86-5.75a5.48 5.48 0 0 0 -2.4.28c0 1 2.28 3.47 5.26 3.47s5.25-2.45 5.25-3.45v-.05c-.31-.3-2.29-.26-3.61-.24-1 0-2.23 0-3.28 0z" fill="#093f68"/><path d="m176.67 109.99h49.34v8.56h-49.34z" fill="#fff"/><path d="m226 119.55h-49.33a1 1 0 0 1 -1-1v-8.55a1 1 0 0 1 1-1h49.33a1 1 0 0 1 1 1v8.56a1 1 0 0 1 -1 .99zm-48.34-2h47.34v-6.55h-47.33z" fill="#093f68"/><path d="m309.09 187.3v22.95h-65v-22.95a33 33 0 0 1 12.44-26.2 27.86 27.86 0 0 1 17.12-5.94h5.93a27.86 27.86 0 0 1 17.12 5.94 33 33 0 0 1 12.39 26.2z" fill="#ffc9b0"/><path d="m309.09 211.25h-65a1 1 0 0 1 -1-1v-22.95a34.16 34.16 0 0 1 12.83-27 28.79 28.79 0 0 1 17.73-6.15h5.93a28.79 28.79 0 0 1 17.73 6.15 34.15 34.15 0 0 1 12.82 27v22.95a1 1 0 0 1 -1.04 1zm-64-2h63v-21.95a32.17 32.17 0 0 0 -12-25.41 26.81 26.81 0 0 0 -16.51-5.73h-5.93a26.87 26.87 0 0 0 -16.51 5.73 32.17 32.17 0 0 0 -12.05 25.41z" fill="#093f68"/><path d="m296.66 161.1v49.15h-40.17v-49.15a28.52 28.52 0 0 1 7.85-4.32 27.34 27.34 0 0 1 9.27-1.62h5.93a27.34 27.34 0 0 1 9.27 1.62 28.52 28.52 0 0 1 7.85 4.32z" fill="#68e1fd"/><path d="m296.66 211.25h-40.17a1 1 0 0 1 -1-1v-49.15a1 1 0 0 1 .39-.79 29.44 29.44 0 0 1 8.13-4.47 28.33 28.33 0 0 1 9.6-1.68h5.93a28.33 28.33 0 0 1 9.6 1.68 29.44 29.44 0 0 1 8.13 4.47 1 1 0 0 1 .39.79v49.15a1 1 0 0 1 -1 1zm-39.17-2h38.17v-47.65a27.25 27.25 0 0 0 -7.19-3.87 26.25 26.25 0 0 0 -8.93-1.57h-5.93a26.44 26.44 0 0 0 -8.93 1.56 27.42 27.42 0 0 0 -7.19 3.88z" fill="#093f68"/><path d="m288.81 156.78c-.78 8-6 14.25-12.24 14.25s-11.46-6.22-12.23-14.25a27.34 27.34 0 0 1 9.27-1.62h5.93a27.34 27.34 0 0 1 9.27 1.62z" fill="#ffc9b0"/><path d="m276.57 172c-6.7 0-12.39-6.51-13.22-15.15a1 1 0 0 1 .65-1 28.43 28.43 0 0 1 9.61-1.68h5.93a28.33 28.33 0 0 1 9.6 1.68 1 1 0 0 1 .66 1c-.8 8.67-6.52 15.15-13.23 15.15zm-11.14-14.56c1 7.21 5.67 12.56 11.14 12.56s10.17-5.35 11.15-12.56a26.17 26.17 0 0 0 -8.18-1.31h-5.93a26.17 26.17 0 0 0 -8.18 1.34z" fill="#093f68"/><path d="m271.79 157.25v-11.68h8.87v11.68" fill="#ffc9b0"/><path d="m280.66 158.25a1 1 0 0 1 -1-1v-10.68h-6.87v10.68a1 1 0 0 1 -2 0v-11.68a1 1 0 0 1 1-1h8.87a1 1 0 0 1 1 1v11.68a1 1 0 0 1 -1 1z" fill="#093f68"/><path d="m273.85 87.56a19.12 19.12 0 0 1 3.12-.24c4.81 0 9.73-.13 14.13 2a26.74 26.74 0 0 1 14.9 23.84v19.74h-58.78c-.34-1.16.18-2.53.23-3.69a15.55 15.55 0 0 0 -.57-3.81 53.64 53.64 0 0 1 -1.16-9.78 38.18 38.18 0 0 1 3.17-15.05c1.17-2.86 2.55-5.82 5.07-7.6s6.52-1.84 8.32.67a20.07 20.07 0 0 1 11.57-6.08z" fill="#725858"/><path d="m306 133.9h-58.78a1 1 0 0 1 -1-.73 6.3 6.3 0 0 1 0-2.87 8.6 8.6 0 0 0 .15-1.13 10.46 10.46 0 0 0 -.37-2.72l-.18-.85a54.85 54.85 0 0 1 -1.18-10 38.69 38.69 0 0 1 3.36-15.41c1.17-2.87 2.66-6.09 5.42-8 2.54-1.8 6.54-2.09 8.92 0a21 21 0 0 1 11.38-5.62 20.89 20.89 0 0 1 3.24-.25h.9c4.6 0 9.36 0 13.71 2.12a27.68 27.68 0 0 1 15.43 24.72v19.74a1 1 0 0 1 -1 1zm-57.86-2h56.86v-18.74a25.65 25.65 0 0 0 -14.31-22.92c-3.93-1.92-8.45-1.92-12.83-1.92h-.86a18.18 18.18 0 0 0 -3 .23 19 19 0 0 0 -11 5.77 1 1 0 0 1 -.79.32 1 1 0 0 1 -.75-.41c-1.45-2-4.85-1.91-6.93-.44-2.32 1.64-3.61 4.43-4.72 7.16a37 37 0 0 0 -3.1 14.65 53.37 53.37 0 0 0 1.14 9.6l.18.82a12.5 12.5 0 0 1 .41 3.24 10.63 10.63 0 0 1 -.18 1.38 10.34 10.34 0 0 0 -.15 1.26z" fill="#093f68"/><ellipse cx="252.2" cy="130.52" fill="#ffc9b0" rx="8.15" ry="7.02"/><path d="m252.2 138.54c-5 0-9.15-3.6-9.15-8s4.11-8 9.15-8 9.15 3.59 9.15 8-4.11 8-9.15 8zm0-14c-3.94 0-7.15 2.7-7.15 6s3.21 6 7.15 6 7.15-2.71 7.15-6-3.21-6.04-7.15-6.04z" fill="#093f68"/><ellipse cx="299.69" cy="130.52" fill="#ffc9b0" rx="8.15" ry="7.02"/><path d="m299.69 138.54c-5 0-9.14-3.6-9.14-8s4.1-8 9.14-8 9.15 3.59 9.15 8-4.11 8-9.15 8zm0-14c-3.94 0-7.14 2.7-7.14 6s3.2 6 7.14 6 7.15-2.71 7.15-6-3.21-6.04-7.15-6.04z" fill="#093f68"/><path d="m276.16 153.39a24.56 24.56 0 0 1 -24.57-24.56v-13.23s6.19-3.53 8-9.09c0 0 11.74 4.45 18.54 4.43a52.92 52.92 0 0 0 22.57-4.86v22.75a24.56 24.56 0 0 1 -24.54 24.56z" fill="#ffc9b0"/><path d="m276.16 154.39a25.6 25.6 0 0 1 -25.57-25.56v-13.23a1 1 0 0 1 .51-.87c.06 0 5.87-3.41 7.57-8.53a1 1 0 0 1 .52-.59 1 1 0 0 1 .78 0c.12.05 11.61 4.37 18.15 4.37a52.44 52.44 0 0 0 22.11-4.75 1 1 0 0 1 1.46.89v22.75a25.6 25.6 0 0 1 -25.53 25.52zm-23.57-38.23v12.67a23.57 23.57 0 0 0 47.14 0v-21.18a55.91 55.91 0 0 1 -21.57 4.29c-5.85 0-15-3.09-17.92-4.15-1.93 4.43-6.18 7.43-7.65 8.37z" fill="#093f68"/><path d="m277.72 143.38c-5.23 0-10.79-2.85-11.12-3a1 1 0 0 1 -.42-1.35 1 1 0 0 1 1.34-.42c.11 0 10.42 5.32 15 1.28a1 1 0 1 1 1.33 1.49 9 9 0 0 1 -6.13 2z" fill="#093f68"/><path d="m276.66 135.89a4.23 4.23 0 0 1 -2.06-.41 1 1 0 0 1 1-1.73 5 5 0 0 0 2.9-.11c.1 0 .1 0 .12-.07.28-.71-.73-3.12-1.82-4.84a1 1 0 0 1 .31-1.38 1 1 0 0 1 1.38.31c.67 1.06 2.79 4.66 2 6.66a2.08 2.08 0 0 1 -1.5 1.27 10.28 10.28 0 0 1 -2.33.3z" fill="#093f68"/><circle cx="264.93" cy="124.84" fill="#093f68" r="2.1"/><circle cx="288.59" cy="124.84" fill="#093f68" r="2.1"/><path d="m271 118.5h-.11l-10-.55a2 2 0 1 1 .22-4l10 .55a2 2 0 0 1 -.11 4z" fill="#093f68"/><path d="m283.38 118.5a2 2 0 0 1 -.11-4l10-.55a2 2 0 1 1 .22 4l-10 .55z" fill="#093f68"/><path d="m275.14 193.59v3.35h-12.44v-2.28a4 4 0 0 1 1.07-2.94 7.83 7.83 0 0 1 4.09-2.14c3-.77 3.53-1.17 3.53-2.08 0-.74-.75-1.27-2.1-1.27a2.89 2.89 0 0 0 -3.1 2.48l-3.75-.38c.28-3.19 3.1-5.34 6.85-5.34 3.55 0 6 1.89 6 4.41s-1.47 3.71-4.78 4.66a3.92 3.92 0 0 0 -.48.14 13.55 13.55 0 0 0 -2.66.89 1 1 0 0 0 -.45.5z" fill="#093f68"/><path d="m289.31 193.59v3.35h-12.44v-2.28a4 4 0 0 1 1.07-2.94 7.83 7.83 0 0 1 4.09-2.14c3-.77 3.53-1.17 3.53-2.08 0-.74-.75-1.27-2.1-1.27a2.89 2.89 0 0 0 -3.1 2.48l-3.75-.38c.28-3.19 3.1-5.34 6.85-5.34 3.55 0 6 1.89 6 4.41s-1.47 3.71-4.78 4.66a3.92 3.92 0 0 0 -.48.14 13.55 13.55 0 0 0 -2.66.89 1 1 0 0 0 -.45.5z" fill="#093f68"/></svg>