<svg xmlns="http://www.w3.org/2000/svg" viewBox="0 0 750 500"><g id="freepik--background-simple--inject-79"><path d="M104.4354,57.2148l2.2021-.6018c18.5628-5.0728,38.4856,.146,51.4701,14.1106,1.669,1.7951,3.2091,3.7111,4.5995,5.7376,10.0104,14.5908,11.9366,34.4442,4.9384,50.8995-4.1158,9.6777-11.1773,18.6188-11.5036,29.0875-.4247,13.6245,10.5245,24.4425,20.6345,33.4436,10.11,9.001,21.039,19.8551,20.5547,33.4784-.3033,8.532-5.2622,16.374-11.49,22.2826-16.4882,15.6432-41.9268,19.4931-63.4635,12.9785-21.5368-6.5145-39.34553-22.1488-52.26949-40.5117-18.10491-25.7242-27.64601-58.2871-22.30191-89.5493,5.3442-31.2621,26.81695-60.4026,56.6292-71.3555Z" style="fill:#f5f5f5;"></path><path d="M649.01489,49.4721l-2.25389-.3622c-18.99981-3.0533-38.24811,4.2716-49.66041,19.5479-1.467,1.9637-2.7928,4.0338-3.9578,6.1977-8.3883,15.58-8.1747,35.5254,.5475,51.1356,5.12971,9.1805,13.1092,17.3129,14.5561,27.6864,1.8831,13.5004-7.8431,25.43-16.9297,35.4632-9.0866,10.0331-18.7888,21.9965-16.8466,35.4894,1.2164,8.4502,6.9875,15.7153,13.81291,20.9221,18.07039,13.7851,43.77529,14.8852,64.48929,6.0991,20.7141-8.7863,36.7438-26.2399,47.6244-45.8826,15.2424-27.5172,21.237-60.9154,12.5717-91.4243s-33.1387-57.1791-63.9535-64.8723Z" style="fill:#f5f5f5;"></path><circle cx="279.22919" cy="222.9281" r="32.7046" style="fill:#f5f5f5;"></circle></g><g id="freepik--Floor--inject-79"><path d="M706.65958,283.7608c0,.1438-148.501,.2604-331.64369,.2604-183.2064,0-331.67549-.1166-331.67549-.2604s148.4691-.2604,331.67549-.2604c183.1427,0,331.64369,.1166,331.64369,.2604Z" style="fill:#263238;"></path></g><g id="freepik--Fence--inject-79"><g><rect x="140.2219" y="272.2041" width="472.96239" height="33.1605" style="fill:#FF634A;"></rect><rect x="172.2529" y="283.7608" width="59.3792" height="9.5208" style="fill:#fff;"></rect><rect x="411.65189" y="283.7608" width="59.3792" height="9.5208" style="fill:#fff;"></rect><polygon points="262.8571 272.2041 234.0123 305.3646 316.88729 305.3646 348.32049 272.2041 262.8571 272.2041" style="fill:#fff;"></polygon><polygon points="362.46169 272.2041 337.503 301.0324 388.31179 272.2041 362.46169 272.2041" style="fill:#455a64;"></polygon><polygon points="352.54779 305.3646 384.743 285.7147 370.32519 305.3646 352.54779 305.3646" style="fill:#fff;"></polygon><polygon points="520.40209 272.2041 491.55729 305.3646 574.43229 305.3646 605.86549 272.2041 520.40209 272.2041" style="fill:#fff;"></polygon><polygon points="613.18429 279.4296 594.76659 300.7028 613.18429 289.4001 613.18429 279.4296" style="fill:#455a64;"></polygon><g style="opacity:.3;"><polygon points="457.31909 272.2041 419.184 305.3646 438.25149 305.3646 477.47109 272.2041 457.31909 272.2041" style="fill:#fff;"></polygon></g><g style="opacity:.3;"><polygon points="192.9782 272.2041 154.8431 305.3646 173.9107 305.3646 213.1302 272.2041 192.9782 272.2041" style="fill:#fff;"></polygon></g><g style="opacity:.3;"><path d="M482.796,272.2041l-37.74171,33.1605h9.1716c.4744,0,38.1095-33.1605,38.1095-33.1605h-9.53939Z" style="fill:#fff;"></path></g><path d="M161.4526,272.2041c.1701,0-21.2307,27.1594-21.2307,27.1594v-27.1594h21.2307Z" style="fill:#455a64;"></path><path d="M613.18439,305.4697c-.0018-.6379-.0308-11.2709-.0909-33.2655l.0907,.0908c-70.1727,.0252-255.49249,.0916-472.78659,.1695l.2603-.2589-.0004,.0636c-.0602,11.3736-.12,22.6594-.1758,33.2017l-.2597-.2611c264.39609,.1453,470.20289,.2583,472.96239,.2599-2.7576,.0015-208.56629,.1145-472.96239,.2597l-.2613,.0002,.0013-.2615c.0555-10.5422,.1149-21.8281,.1748-33.2016l.0003-.0637,.0014-.2592,.2591,.0001c217.29409,.0779,402.61389,.1443,472.78659,.1694l.0913,.0001-.0002,.091c-.0601,21.9947-.0892,32.628-.0909,33.2655Z" style="fill:#263238;"></path></g></g><g id="freepik--Score_board--inject-79"><g><rect x="367.15739" y="15.0747" width="15.6852" height="56.3567" style="fill:#e0e0e0;"></rect><g><g><g><rect x="279.88849" y="51.706" width="190.223" height="114.8013" style="fill:#455a64;"></rect><path d="M470.11149,166.5073s-.0144-.7089-.0217-2.0685c-.0051-1.3652-.0126-3.3802-.0225-6.0161-.0118-5.2797-.0291-13.0395-.0514-22.9973-.0255-19.8991-.0623-48.5751-.1073-83.7193l.2028,.2029c-51.4038,.0155-117.8667,.0356-190.2083,.0574h-.0145l.2603-.2603c-.0068,40.6724-.0133,79.4828-.0192,114.8011l-.2411-.2412c55.7881,.048,103.3129,.0889,136.9001,.1178,16.8065,.028,30.1239,.0501,39.2488,.0653,4.5606,.0129,8.0716,.0228,10.4518,.0295,1.18371,.0063,2.0844,.0111,2.6983,.0144,.60741,.0047,.9239,.0143,.9239,.0143,0,0-.2973,.0096-.8954,.0144-.6076,.0033-1.4992,.0081-2.6709,.0143-2.369,.0068-5.8637,.0167-10.403,.0295-9.1123,.0152-22.4111,.0374-39.194,.0653-33.6264,.0289-81.2065,.0698-137.0596,.1178l-.2413,.0002-.0001-.2416c-.0059-35.3183-.0123-74.1287-.0191-114.8011v-.2604h.275c72.3416,.0218,138.8045,.0419,190.2083,.0574l.2033,.0001-.0002,.2029c-.0451,35.1969-.0819,63.9158-.1074,83.8447-.0222,9.9381-.0395,17.6826-.0514,22.9518-.0098,2.6195-.0173,4.6218-.0224,5.9785-.0074,1.3461-.0218,2.0262-.0218,2.0262Z" style="fill:#263238;"></path></g><g><path d="M307.77209,59.8841v7.6904h-1.7803v-3.1528h-3.4931v3.1528h-1.7803v-7.6904h1.7803v3.0322h3.4931v-3.0322h1.7803Z" style="fill:#fff;"></path><path d="M309.112,63.7293c0-2.2851,1.78019-3.977,4.208-3.977,2.417,0,4.208,1.6811,4.208,3.977s-1.791,3.9771-4.208,3.9771c-2.42781,0-4.208-1.6919-4.208-3.9771Zm6.61419,0c0-1.4609-1.03319-2.4609-2.40619-2.4609-1.37311,0-2.40631,1-2.40631,2.4609,0,1.461,1.0332,2.461,2.40631,2.461,1.373,0,2.40619-1,2.40619-2.461Z" style="fill:#fff;"></path><path d="M325.86629,67.5745l-.0112-4.6142-2.2627,3.8012h-.8022l-2.2525-3.7021v4.5151h-1.6699v-7.6904h1.4727l2.8779,4.7788,2.835-4.7788h1.4609l.022,7.6904h-1.67Z" style="fill:#fff;"></path><path d="M335.31409,66.1463v1.4282h-5.95409v-7.6904h5.81149v1.4282h-4.0429v1.6699h3.5703v1.3843h-3.5703v1.7798h4.1855Z" style="fill:#fff;"></path></g><rect x="289.48969" y="71.4314" width="57.6705" height="37.6753" style="fill:#263238;"></rect><g style="opacity:.1;"><polygon points="307.13819 102.9713 308.25109 101.5168 308.23879 92.5913 306.82519 90.9518 305.40279 92.6282 305.40279 100.7282 307.13819 102.9713" style="fill:#fff;"></polygon><polygon points="307.17209 77.2404 308.24749 78.968 308.24749 87.5502 306.75279 89.1413 305.40279 87.5502 305.40279 79.4502 307.17209 77.2404" style="fill:#fff;"></polygon><polygon points="294.13969 77.2404 293.02679 78.695 293.03909 87.6205 294.45279 89.2599 295.87509 87.5836 295.87509 79.4836 294.13969 77.2404" style="fill:#fff;"></polygon><polygon points="294.10579 102.9713 293.03039 101.2437 293.03039 92.6615 294.52509 91.0705 295.87509 92.6615 295.87509 100.7616 294.10579 102.9713" style="fill:#fff;"></polygon><polygon points="295.19029 90.1453 296.44389 88.6024 304.83319 88.6024 306.04269 90.1212 304.83319 91.6399 296.39569 91.6399 295.19029 90.1453" style="fill:#fff;"></polygon><polygon points="294.71789 103.583 296.53729 101.2435 304.77589 101.2435 306.54179 103.5928 305.95289 104.4266 295.38709 104.4266 294.71789 103.583" style="fill:#fff;"></polygon><polygon points="306.54179 76.8072 304.72239 79.1467 296.48379 79.1467 294.71789 76.7973 295.30679 75.9636 305.87259 75.9636 306.54179 76.8072" style="fill:#fff;"></polygon><polygon points="324.62109 102.9713 325.734 101.5168 325.72169 92.5913 324.308 90.9518 322.88569 92.6282 322.88569 100.7282 324.62109 102.9713" style="fill:#fff;"></polygon><polygon points="324.655 77.2404 325.73029 78.968 325.73029 87.5502 324.23569 89.1413 322.88569 87.5502 322.88569 79.4502 324.655 77.2404" style="fill:#fff;"></polygon><polygon points="311.62259 77.2404 310.50969 78.695 310.52189 87.6205 311.93559 89.2599 313.358 87.5836 313.358 79.4836 311.62259 77.2404" style="fill:#fff;"></polygon><polygon points="311.58859 102.9713 310.51329 101.2437 310.51329 92.6615 312.008 91.0705 313.358 92.6615 313.358 100.7616 311.58859 102.9713" style="fill:#fff;"></polygon><polygon points="312.67309 90.1453 313.92669 88.6024 322.316 88.6024 323.52559 90.1212 322.316 91.6399 313.87849 91.6399 312.67309 90.1453" style="fill:#fff;"></polygon><polygon points="312.20079 103.583 314.02019 101.2435 322.25879 101.2435 324.02459 103.5928 323.43569 104.4266 312.87 104.4266 312.20079 103.583" style="fill:#fff;"></polygon><polygon points="324.02459 76.8072 322.20519 79.1467 313.96659 79.1467 312.20079 76.7973 312.78969 75.9636 323.35539 75.9636 324.02459 76.8072" style="fill:#fff;"></polygon><polygon points="342.51019 102.9713 343.62309 101.5168 343.61079 92.5913 342.19709 90.9518 340.77479 92.6282 340.77479 100.7282 342.51019 102.9713" style="fill:#fff;"></polygon><polygon points="342.54409 77.2404 343.61949 78.968 343.61949 87.5502 342.12479 89.1413 340.77479 87.5502 340.77479 79.4502 342.54409 77.2404" style="fill:#fff;"></polygon><polygon points="329.51169 77.2404 328.39879 78.695 328.41109 87.6205 329.82469 89.2599 331.24709 87.5836 331.24709 79.4836 329.51169 77.2404" style="fill:#fff;"></polygon><polygon points="329.47769 102.9713 328.40239 101.2437 328.40239 92.6615 329.89709 91.0705 331.24709 92.6615 331.24709 100.7616 329.47769 102.9713" style="fill:#fff;"></polygon><polygon points="330.56229 90.1453 331.81589 88.6024 340.20509 88.6024 341.41469 90.1212 340.20509 91.6399 331.76769 91.6399 330.56229 90.1453" style="fill:#fff;"></polygon><polygon points="330.08989 103.583 331.90929 101.2435 340.14789 101.2435 341.91369 103.5928 341.32479 104.4266 330.75909 104.4266 330.08989 103.583" style="fill:#fff;"></polygon><polygon points="341.91369 76.8072 340.09439 79.1467 331.85579 79.1467 330.08989 76.7973 330.67879 75.9636 341.24449 75.9636 341.91369 76.8072" style="fill:#fff;"></polygon></g><g><path d="M417.46739,63.6082h1.626v3.1201c-.8457,.6377-2.0107,.9781-3.10939,.9781-2.417,0-4.19631-1.6587-4.19631-3.9771s1.77931-3.977,4.2295-3.977c1.3516,0,2.4717,.4614,3.21881,1.3296l-1.14261,1.0546c-.5605-.5937-1.208-.8681-1.9883-.8681-1.49409,0-2.5156,1-2.5156,2.4609,0,1.4395,1.02151,2.461,2.4941,2.461,.4825,0,.9336-.0879,1.3838-.3296v-2.2525Z" style="fill:#fff;"></path><path d="M420.67539,64.1907v-4.3066h1.7803v4.2407c0,1.461,.6367,2.0655,1.7139,2.0655,1.0879,0,1.7138-.6045,1.7138-2.0655v-4.2407h1.7579v4.3066c0,2.2632-1.2969,3.5157-3.4834,3.5157-2.1856,0-3.4825-1.2525-3.4825-3.5157Z" style="fill:#fff;"></path><path d="M435.35319,66.1463v1.4282h-5.9541v-7.6904h5.8115v1.4282h-4.043v1.6699h3.5703v1.3843h-3.5703v1.7798h4.1856Z" style="fill:#fff;"></path><path d="M436.16569,66.8162l.6045-1.3398c.6474,.4722,1.6142,.8017,2.538,.8017,1.0547,0,1.4825-.3515,1.4825-.8242,0-1.4389-4.47069-.4502-4.47069-3.3066,0-1.3076,1.05459-2.395,3.24019-2.395,.96681,0,1.9561,.2309,2.6699,.6811l-.5488,1.3516c-.7149-.4068-1.4512-.6045-2.1318-.6045-1.0547,0-1.461,.3955-1.461,.8789,0,1.417,4.4717,.4394,4.4717,3.2627,0,1.2856-1.0664,2.3843-3.2637,2.3843-1.2187,0-2.4492-.3628-3.1308-.8902Z" style="fill:#fff;"></path><path d="M445.26229,61.3343h-2.4609v-1.4502h6.7022v1.4502h-2.461v6.2402h-1.7803v-6.2402Z" style="fill:#fff;"></path></g><g><path d="M363.28139,72.2508c0,1.2397-.9302,2.0112-2.4165,2.0112h-1.1211v1.5342h-1.2881v-5.5649h2.4092c1.4863,0,2.4165,.771,2.4165,2.0195Zm-1.3037,0c0-.6123-.3975-.9702-1.1846-.9702h-1.0493v1.9321h1.0493c.7871,0,1.1846-.3579,1.1846-.9619Z" style="fill:#fff;"></path><path d="M368.507,74.7625v1.0337h-4.30911v-5.5649h4.2056v1.0337h-2.9253v1.208h2.5835v1.0019h-2.5835v1.2876h3.02881Z" style="fill:#fff;"></path><path d="M373.07969,75.7962l-1.0732-1.5503h-1.1846v1.5503h-1.2871v-5.5649h2.40821c1.48729,0,2.417,.771,2.417,2.0195,0,.8345-.42091,1.4468-1.14451,1.7568l1.248,1.7886h-1.3838Zm-1.208-4.5156h-1.0498v1.9399h1.0498c.7871,0,1.1846-.3657,1.1846-.9697,0-.6123-.3975-.9702-1.1846-.9702Z" style="fill:#fff;"></path><path d="M375.38049,70.2313h1.2871v5.5649h-1.2871v-5.5649Z" style="fill:#fff;"></path><path d="M377.63829,73.014c0-1.6538,1.2881-2.8779,3.0449-2.8779,1.7491,0,3.045,1.2163,3.045,2.8779,0,1.6611-1.2959,2.8774-3.045,2.8774-1.7568,0-3.0449-1.2241-3.0449-2.8774Zm4.7862,0c0-1.0576-.7471-1.7808-1.7413-1.7808-.9931,0-1.74019,.7232-1.74019,1.7808,0,1.0571,.74709,1.7807,1.74019,1.7807,.9942,0,1.7413-.7236,1.7413-1.7807Z" style="fill:#fff;"></path><path d="M384.70179,70.2313h2.5273c1.8213,0,3.0694,1.0971,3.0694,2.7827,0,1.685-1.2481,2.7822-3.0694,2.7822h-2.5273v-5.5649Zm2.4639,4.5078c1.1054,0,1.8291-.6602,1.8291-1.7251,0-1.0654-.7237-1.7251-1.8291-1.7251h-1.1768v3.4502h1.1768Z" style="fill:#fff;"></path></g><rect x="401.04229" y="71.4314" width="57.6705" height="37.6753" style="fill:#263238;"></rect><g style="opacity:.1;"><polygon points="418.69079 102.9713 419.80369 101.5168 419.79139 92.5913 418.37769 90.9518 416.95539 92.6282 416.95539 100.7282 418.69079 102.9713" style="fill:#fff;"></polygon><polygon points="418.72469 77.2404 419.8 78.968 419.8 87.5502 418.30539 89.1413 416.95539 87.5502 416.95539 79.4502 418.72469 77.2404" style="fill:#fff;"></polygon><polygon points="405.69229 77.2404 404.57929 78.695 404.59169 87.6205 406.00529 89.2599 407.42759 87.5836 407.42759 79.4836 405.69229 77.2404" style="fill:#fff;"></polygon><polygon points="405.65829 102.9713 404.583 101.2437 404.583 92.6615 406.07759 91.0705 407.42759 92.6615 407.42759 100.7616 405.65829 102.9713" style="fill:#fff;"></polygon><polygon points="406.74289 90.1453 407.99639 88.6024 416.38569 88.6024 417.59529 90.1212 416.38569 91.6399 407.94819 91.6399 406.74289 90.1453" style="fill:#fff;"></polygon><polygon points="406.27049 103.583 408.08989 101.2435 416.32849 101.2435 418.09429 103.5928 417.50539 104.4266 406.93969 104.4266 406.27049 103.583" style="fill:#fff;"></polygon><polygon points="418.09429 76.8072 416.27489 79.1467 408.03639 79.1467 406.27049 76.7973 406.85939 75.9636 417.42509 75.9636 418.09429 76.8072" style="fill:#fff;"></polygon><polygon points="436.17359 102.9713 437.28659 101.5168 437.27429 92.5913 435.86059 90.9518 434.43829 92.6282 434.43829 100.7282 436.17359 102.9713" style="fill:#fff;"></polygon><polygon points="436.20759 77.2404 437.28289 78.968 437.28289 87.5502 435.78829 89.1413 434.43829 87.5502 434.43829 79.4502 436.20759 77.2404" style="fill:#fff;"></polygon><polygon points="423.17519 77.2404 422.06219 78.695 422.07449 87.6205 423.48819 89.2599 424.91049 87.5836 424.91049 79.4836 423.17519 77.2404" style="fill:#fff;"></polygon><polygon points="423.14119 102.9713 422.06589 101.2437 422.06589 92.6615 423.56049 91.0705 424.91049 92.6615 424.91049 100.7616 423.14119 102.9713" style="fill:#fff;"></polygon><polygon points="424.22569 90.1453 425.47929 88.6024 433.86859 88.6024 435.07809 90.1212 433.86859 91.6399 425.43109 91.6399 424.22569 90.1453" style="fill:#fff;"></polygon><polygon points="423.75339 103.583 425.57279 101.2435 433.81129 101.2435 435.57719 103.5928 434.98829 104.4266 424.42259 104.4266 423.75339 103.583" style="fill:#fff;"></polygon><polygon points="435.57719 76.8072 433.75779 79.1467 425.51919 79.1467 423.75339 76.7973 424.34229 75.9636 434.908 75.9636 435.57719 76.8072" style="fill:#fff;"></polygon><polygon points="454.06269 102.9713 455.17569 101.5168 455.16339 92.5913 453.74969 90.9518 452.32739 92.6282 452.32739 100.7282 454.06269 102.9713" style="fill:#fff;"></polygon><polygon points="454.09669 77.2404 455.172 78.968 455.172 87.5502 453.67739 89.1413 452.32739 87.5502 452.32739 79.4502 454.09669 77.2404" style="fill:#fff;"></polygon><polygon points="441.06429 77.2404 439.95129 78.695 439.96359 87.6205 441.37729 89.2599 442.79959 87.5836 442.79959 79.4836 441.06429 77.2404" style="fill:#fff;"></polygon><polygon points="441.03029 102.9713 439.955 101.2437 439.955 92.6615 441.44959 91.0705 442.79959 92.6615 442.79959 100.7616 441.03029 102.9713" style="fill:#fff;"></polygon><polygon points="442.11489 90.1453 443.36839 88.6024 451.75769 88.6024 452.96729 90.1212 451.75769 91.6399 443.32019 91.6399 442.11489 90.1453" style="fill:#fff;"></polygon><polygon points="441.64249 103.583 443.46189 101.2435 451.70049 101.2435 453.46629 103.5928 452.87739 104.4266 442.31169 104.4266 441.64249 103.583" style="fill:#fff;"></polygon><polygon points="453.46629 76.8072 451.64689 79.1467 443.40829 79.1467 441.64249 76.7973 442.23139 75.9636 452.79709 75.9636 453.46629 76.8072" style="fill:#fff;"></polygon></g><g><rect x="329.50169" y="121.3778" width="83.74531" height="37.6753" style="fill:#263238;"></rect><g style="opacity:.1;"><polygon points="348.65059 152.9917 349.76349 151.5372 349.75119 142.6116 348.33749 140.9722 346.91519 142.6485 346.91519 150.7485 348.65059 152.9917" style="fill:#fff;"></polygon><polygon points="348.68449 127.2608 349.75989 128.9884 349.75989 137.5706 348.26519 139.1617 346.91519 137.5706 346.91519 129.4706 348.68449 127.2608" style="fill:#fff;"></polygon><polygon points="335.65209 127.2608 334.53919 128.7154 334.55149 137.6409 335.96509 139.2803 337.38749 137.604 337.38749 129.504 335.65209 127.2608" style="fill:#fff;"></polygon><polygon points="335.61809 152.9917 334.54279 151.2641 334.54279 142.6819 336.03749 141.0908 337.38749 142.6819 337.38749 150.782 335.61809 152.9917" style="fill:#fff;"></polygon><polygon points="336.70269 140.1656 337.95629 138.6228 346.34549 138.6228 347.55509 140.1415 346.34549 141.6603 337.908 141.6603 336.70269 140.1656" style="fill:#fff;"></polygon><polygon points="336.23029 153.6033 338.04969 151.2639 346.28829 151.2639 348.05419 153.6132 347.46519 154.447 336.89949 154.447 336.23029 153.6033" style="fill:#fff;"></polygon><polygon points="348.05419 126.8276 346.23479 129.167 337.99619 129.167 336.23029 126.8177 336.81919 125.9839 347.38489 125.9839 348.05419 126.8276" style="fill:#fff;"></polygon><polygon points="366.13339 152.9917 367.24639 151.5372 367.23409 142.6116 365.82039 140.9722 364.39809 142.6485 364.39809 150.7485 366.13339 152.9917" style="fill:#fff;"></polygon><polygon points="366.16739 127.2608 367.24269 128.9884 367.24269 137.5706 365.74809 139.1617 364.39809 137.5706 364.39809 129.4706 366.16739 127.2608" style="fill:#fff;"></polygon><polygon points="353.135 127.2608 352.022 128.7154 352.03429 137.6409 353.448 139.2803 354.87029 137.604 354.87029 129.504 353.135 127.2608" style="fill:#fff;"></polygon><polygon points="353.101 152.9917 352.02569 151.2641 352.02569 142.6819 353.52029 141.0908 354.87029 142.6819 354.87029 150.782 353.101 152.9917" style="fill:#fff;"></polygon><polygon points="354.18549 140.1656 355.43909 138.6228 363.82839 138.6228 365.03789 140.1415 363.82839 141.6603 355.39089 141.6603 354.18549 140.1656" style="fill:#fff;"></polygon><polygon points="353.71319 153.6033 355.53259 151.2639 363.77109 151.2639 365.537 153.6132 364.94809 154.447 354.38239 154.447 353.71319 153.6033" style="fill:#fff;"></polygon><polygon points="365.537 126.8276 363.71759 129.167 355.479 129.167 353.71319 126.8177 354.30209 125.9839 364.86779 125.9839 365.537 126.8276" style="fill:#fff;"></polygon></g><g style="opacity:.1;"><polygon points="390.98109 152.9917 392.094 151.5372 392.08169 142.6116 390.668 140.9722 389.24569 142.6485 389.24569 150.7485 390.98109 152.9917" style="fill:#fff;"></polygon><polygon points="391.015 127.2608 392.09029 128.9884 392.09029 137.5706 390.59569 139.1617 389.24569 137.5706 389.24569 129.4706 391.015 127.2608" style="fill:#fff;"></polygon><polygon points="377.98249 127.2608 376.86959 128.7154 376.882 137.6409 378.29559 139.2803 379.71789 137.604 379.71789 129.504 377.98249 127.2608" style="fill:#fff;"></polygon><polygon points="377.94859 152.9917 376.87329 151.2641 376.87329 142.6819 378.36789 141.0908 379.71789 142.6819 379.71789 150.782 377.94859 152.9917" style="fill:#fff;"></polygon><polygon points="379.03319 140.1656 380.28669 138.6228 388.676 138.6228 389.88559 140.1415 388.676 141.6603 380.23849 141.6603 379.03319 140.1656" style="fill:#fff;"></polygon><polygon points="378.56079 153.6033 380.38019 151.2639 388.61879 151.2639 390.38459 153.6132 389.79569 154.447 379.23 154.447 378.56079 153.6033" style="fill:#fff;"></polygon><polygon points="390.38459 126.8276 388.56519 129.167 380.32659 129.167 378.56079 126.8177 379.14969 125.9839 389.71539 125.9839 390.38459 126.8276" style="fill:#fff;"></polygon><polygon points="408.46389 152.9917 409.57679 151.5372 409.56449 142.6116 408.15089 140.9722 406.72849 142.6485 406.72849 150.7485 408.46389 152.9917" style="fill:#fff;"></polygon><polygon points="408.49789 127.2608 409.57319 128.9884 409.57319 137.5706 408.07849 139.1617 406.72849 137.5706 406.72849 129.4706 408.49789 127.2608" style="fill:#fff;"></polygon><polygon points="395.46539 127.2608 394.35249 128.7154 394.36479 137.6409 395.77849 139.2803 397.20079 137.604 397.20079 129.504 395.46539 127.2608" style="fill:#fff;"></polygon><polygon points="395.43149 152.9917 394.35609 151.2641 394.35609 142.6819 395.85079 141.0908 397.20079 142.6819 397.20079 150.782 395.43149 152.9917" style="fill:#fff;"></polygon><polygon points="396.516 140.1656 397.76959 138.6228 406.15889 138.6228 407.36839 140.1415 406.15889 141.6603 397.72139 141.6603 396.516 140.1656" style="fill:#fff;"></polygon><polygon points="396.04369 153.6033 397.86309 151.2639 406.10159 151.2639 407.86749 153.6132 407.27849 154.447 396.71279 154.447 396.04369 153.6033" style="fill:#fff;"></polygon><polygon points="407.86749 126.8276 406.04809 129.167 397.80949 129.167 396.04369 126.8177 396.63249 125.9839 407.19819 125.9839 407.86749 126.8276" style="fill:#fff;"></polygon></g><path d="M373.20919,136.7689c0,.7218-.58519,1.307-1.307,1.307s-1.3069-.5852-1.3069-1.307,.5851-1.3069,1.3069-1.3069,1.307,.5851,1.307,1.3069Z" style="fill:#FF634A;"></path><path d="M373.20919,143.5393c0,.7218-.58519,1.3069-1.307,1.3069s-1.3069-.5851-1.3069-1.3069,.5851-1.307,1.3069-1.307,1.307,.5852,1.307,1.307Z" style="fill:#FF634A;"></path></g><rect x="429.65189" y="121.3778" width="22.6755" height="4.6061" style="fill:#263238;"></rect><rect x="429.87749" y="131.8891" width="21.5493" height="25.6865" style="fill:#263238;"></rect><rect x="294.94019" y="121.3778" width="22.6754" height="4.6061" style="fill:#263238;"></rect><rect x="295.16579" y="131.8891" width="21.5493" height="25.6865" style="fill:#263238;"></rect><rect x="363.65879" y="79.1467" width="21.08921" height="28.7058" style="fill:#263238;"></rect><g style="opacity:.1;"><polygon points="379.45129 102.3428 380.235 101.3185 380.22639 95.0332 379.23089 93.8787 378.22929 95.0592 378.22929 100.7632 379.45129 102.3428" style="fill:#fff;"></polygon><polygon points="379.47519 84.2233 380.23249 85.4398 380.23249 91.4833 379.17989 92.6038 378.22929 91.4833 378.22929 85.7794 379.47519 84.2233" style="fill:#fff;"></polygon><polygon points="370.29789 84.2233 369.51419 85.2476 369.52279 91.5328 370.51829 92.6873 371.51989 91.5068 371.51989 85.8029 370.29789 84.2233" style="fill:#fff;"></polygon><polygon points="370.274 102.3428 369.51669 101.1262 369.51669 95.0827 370.56929 93.9623 371.51989 95.0827 371.51989 100.7867 370.274 102.3428" style="fill:#fff;"></polygon><polygon points="371.03769 93.3108 371.92039 92.2243 377.82809 92.2243 378.67989 93.2938 377.82809 94.3633 371.88649 94.3633 371.03769 93.3108" style="fill:#fff;"></polygon><polygon points="370.70509 102.7735 371.98629 101.1261 377.78779 101.1261 379.03129 102.7804 378.61659 103.3676 371.17629 103.3676 370.70509 102.7735" style="fill:#fff;"></polygon><polygon points="379.03129 83.9182 377.75009 85.5656 371.94859 85.5656 370.70509 83.9112 371.11979 83.3241 378.56009 83.3241 379.03129 83.9182" style="fill:#fff;"></polygon></g><g><polygon points="324.62109 103.0452 325.734 101.5907 325.72169 92.6652 324.308 91.0258 322.88569 92.7021 322.88569 100.8021 324.62109 103.0452" style="fill:#FF634A;"></polygon><polygon points="324.655 77.3144 325.73029 79.042 325.73029 87.6241 324.23569 89.2152 322.88569 87.6241 322.88569 79.5241 324.655 77.3144" style="fill:#FF634A;"></polygon><polygon points="311.62259 77.3144 310.50969 78.7689 310.52189 87.6944 311.93559 89.3338 313.358 87.6575 313.358 79.5575 311.62259 77.3144" style="fill:#FF634A;"></polygon><polygon points="312.67309 90.2192 313.92669 88.6764 322.316 88.6764 323.52559 90.1951 322.316 91.7138 313.87849 91.7138 312.67309 90.2192" style="fill:#FF634A;"></polygon><polygon points="342.51019 103.0452 343.62309 101.5907 343.61079 92.6652 342.19709 91.0258 340.77479 92.7021 340.77479 100.8021 342.51019 103.0452" style="fill:#FF634A;"></polygon><polygon points="342.54409 77.3144 343.61949 79.042 343.61949 87.6241 342.12479 89.2152 340.77479 87.6241 340.77479 79.5241 342.54409 77.3144" style="fill:#FF634A;"></polygon><polygon points="329.51169 77.3144 328.39879 78.7689 328.41109 87.6944 329.82469 89.3338 331.24709 87.6575 331.24709 79.5575 329.51169 77.3144" style="fill:#FF634A;"></polygon><polygon points="330.56229 90.2192 331.81589 88.6764 340.20509 88.6764 341.41469 90.1951 340.20509 91.7138 331.76769 91.7138 330.56229 90.2192" style="fill:#FF634A;"></polygon></g><g><polygon points="436.20759 77.2404 437.28289 78.968 437.28289 87.5502 435.78829 89.1413 434.43829 87.5502 434.43829 79.4502 436.20759 77.2404" style="fill:#FF634A;"></polygon><polygon points="423.14119 102.9713 422.06589 101.2437 422.06589 92.6615 423.56049 91.0705 424.91049 92.6615 424.91049 100.7616 423.14119 102.9713" style="fill:#FF634A;"></polygon><polygon points="424.22569 90.1453 425.47929 88.6024 433.86859 88.6024 435.07809 90.1212 433.86859 91.6399 425.43109 91.6399 424.22569 90.1453" style="fill:#FF634A;"></polygon><polygon points="423.75339 103.583 425.57279 101.2435 433.81129 101.2435 435.57719 103.5928 434.98829 104.4266 424.42259 104.4266 423.75339 103.583" style="fill:#FF634A;"></polygon><polygon points="435.57719 76.8072 433.75779 79.1467 425.51919 79.1467 423.75339 76.7973 424.34229 75.9636 434.908 75.9636 435.57719 76.8072" style="fill:#FF634A;"></polygon><polygon points="454.06269 102.9713 455.17569 101.5168 455.16339 92.5913 453.74969 90.9518 452.32739 92.6282 452.32739 100.7282 454.06269 102.9713" style="fill:#FF634A;"></polygon><polygon points="454.09669 77.2404 455.172 78.968 455.172 87.5502 453.67739 89.1413 452.32739 87.5502 452.32739 79.4502 454.09669 77.2404" style="fill:#FF634A;"></polygon><polygon points="442.11489 90.1453 443.36839 88.6024 451.75769 88.6024 452.96729 90.1212 451.75769 91.6399 443.32019 91.6399 442.11489 90.1453" style="fill:#FF634A;"></polygon><polygon points="441.64249 103.583 443.46189 101.2435 451.70049 101.2435 453.46629 103.5928 452.87739 104.4266 442.31169 104.4266 441.64249 103.583" style="fill:#FF634A;"></polygon><polygon points="453.46629 76.8072 451.64689 79.1467 443.40829 79.1467 441.64249 76.7973 442.23139 75.9636 452.79709 75.9636 453.46629 76.8072" style="fill:#FF634A;"></polygon></g><g><polygon points="379.45129 102.3428 380.235 101.3185 380.22639 95.0332 379.23089 93.8787 378.22929 95.0592 378.22929 100.7632 379.45129 102.3428" style="fill:#FF634A;"></polygon><polygon points="379.47519 84.2233 380.23249 85.4398 380.23249 91.4833 379.17989 92.6038 378.22929 91.4833 378.22929 85.7794 379.47519 84.2233" style="fill:#FF634A;"></polygon></g><g><polygon points="348.69829 152.9917 349.81129 151.5372 349.79889 142.6116 348.38529 140.9722 346.963 142.6485 346.963 150.7485 348.69829 152.9917" style="fill:#FF634A;"></polygon><polygon points="348.73219 127.2608 349.80759 128.9884 349.80759 137.5706 348.313 139.1617 346.963 137.5706 346.963 129.4706 348.73219 127.2608" style="fill:#FF634A;"></polygon><polygon points="366.18119 152.9917 367.29409 151.5372 367.28179 142.6116 365.86809 140.9722 364.44579 142.6485 364.44579 150.7485 366.18119 152.9917" style="fill:#FF634A;"></polygon><polygon points="366.21509 127.2608 367.29039 128.9884 367.29039 137.5706 365.79579 139.1617 364.44579 137.5706 364.44579 129.4706 366.21509 127.2608" style="fill:#FF634A;"></polygon><polygon points="391.02879 152.9917 392.14169 151.5372 392.12939 142.6116 390.71569 140.9722 389.29339 142.6485 389.29339 150.7485 391.02879 152.9917" style="fill:#FF634A;"></polygon><polygon points="391.06269 127.2608 392.13809 128.9884 392.13809 137.5706 390.64339 139.1617 389.29339 137.5706 389.29339 129.4706 391.06269 127.2608" style="fill:#FF634A;"></polygon><polygon points="408.51169 152.9917 409.62459 151.5372 409.61229 142.6116 408.19859 140.9722 406.77629 142.6485 406.77629 150.7485 408.51169 152.9917" style="fill:#FF634A;"></polygon><polygon points="395.51319 127.2608 394.40019 128.7154 394.41249 137.6409 395.82619 139.2803 397.24859 137.604 397.24859 129.504 395.51319 127.2608" style="fill:#FF634A;"></polygon><polygon points="396.56369 140.1656 397.81729 138.6228 406.20659 138.6228 407.41609 140.1415 406.20659 141.6603 397.76909 141.6603 396.56369 140.1656" style="fill:#FF634A;"></polygon><polygon points="396.09139 153.6033 397.91079 151.2639 406.14929 151.2639 407.91519 153.6132 407.32629 154.447 396.76059 154.447 396.09139 153.6033" style="fill:#FF634A;"></polygon><polygon points="407.91519 126.8276 406.09579 129.167 397.85719 129.167 396.09139 126.8177 396.68029 125.9839 407.246 125.9839 407.91519 126.8276" style="fill:#FF634A;"></polygon></g></g><polygon points="468.96339 169.9423 281.15509 169.9423 279.88849 166.5073 470.11149 166.5073 468.96339 169.9423" style="fill:#263238;"></polygon></g></g></g><g id="freepik--Court--inject-79"><g><polygon points="24.943 429.0816 139.4225 313.4896 612.66639 312.5222 724.58628 429.0816 24.943 429.0816" style="fill:#ffbf9d;"></polygon><ellipse cx="374.49047" cy="362.66882" rx="45.95397" ry="14.70778" style="fill:#FF634A;"></ellipse><polygon points="231.6321 374.9534 114.1208 374.9534 137.7668 351.0773 244.8454 350.3842 231.6321 374.9534" style="fill:#FF634A;"></polygon><polygon points="637.22379 375.4792 518.30269 375.4792 502.85169 347.557 609.678 346.7246 637.22379 375.4792" style="fill:#FF634A;"></polygon><g><g style="opacity:.3;"><path d="M715.11838,418.3886c0,.1438-151.9023,.2811-339.23969,.3067-187.4026,.0255-339.27229-.0704-339.27229-.2142s151.8697-.2811,339.27219-.3066c187.33741-.0256,339.23969,.0703,339.23979,.2141Z"></path></g><g style="opacity:.3;"><path d="M699.07058,401.6757c0,.1438-144.6521,.2604-323.04809,.2604-178.458,0-323.07909-.1166-323.07909-.2604s144.6211-.2603,323.07909-.2603c178.396,0,323.04809,.1165,323.04809,.2603Z"></path></g><g style="opacity:.3;"><path d="M681.38118,384.2842c0,.1439-137.524,.2605-307.12899,.2605-169.6641,0-307.15859-.1166-307.15859-.2605,0-.1437,137.4945-.2603,307.15859-.2603,169.605,0,307.12899,.1166,307.12899,.2603Z"></path></g><g style="opacity:.3;"><path d="M654.82809,369.8123c0,.1438-127.7635,.2604-285.33129,.2604-157.6225,0-285.35868-.1166-285.35868-.2604s127.73619-.2604,285.35868-.2604c157.5678,0,285.33129,.1166,285.33129,.2604Z"></path></g><g style="opacity:.3;"><path d="M642.80579,356.1921c0,.1438-121.8696,.2604-272.16849,.2604-150.3512,0-272.19469-.1166-272.19469-.2604s121.8435-.2604,272.19469-.2604c150.2989,0,272.16849,.1166,272.16849,.2604Z"></path></g><g style="opacity:.3;"><path d="M640.50829,342.5719c0,.1438-117.9927,.2604-263.51029,.2604-145.5682,0-263.5357-.1166-263.5357-.2604s117.9675-.2604,263.5357-.2604c145.51759,0,263.51029,.1166,263.51029,.2604Z"></path></g><g style="opacity:.3;"><path d="M632.213,332.0465c0,.1439-114.26061,.2605-255.17551,.2605-140.9639,0-255.19999-.1166-255.19999-.2605,0-.1437,114.2361-.2603,255.19999-.2603,140.9149,0,255.17551,.1166,255.17551,.2603Z"></path></g><g style="opacity:.3;"><path d="M621.05239,322.8645c0,.1438-109.643,.2604-244.86309,.2604-135.2671,0-244.88659-.1166-244.88659-.2604s109.6195-.2604,244.88659-.2604c135.2201,0,244.86309,.1166,244.86309,.2604Z"></path></g><g style="opacity:.1;"><polygon points="81.56105 401.6757 95.8893 384.2843 207.1449 384.2843 199.0255 401.6757 81.56105 401.6757"></polygon></g><g style="opacity:.1;"><polygon points="208.4284 384.2843 215.4435 369.8123 257.9251 369.8123 301.43039 369.8123 295.93329 384.2843 208.4284 384.2843"></polygon></g><g style="opacity:.2;"><polygon points="264.8357 356.0106 368.18039 356.1921 363.78269 369.8123 257.9251 369.8123 264.8357 356.0106" style="fill:#fff;"></polygon></g><g style="opacity:.1;"><polygon points="378.042 342.5719 378.87879 332.0466 501.80919 332.0466 504.641 342.5719 378.042 342.5719"></polygon></g><g style="opacity:.1;"><polygon points="494.243 369.8123 492.29249 356.1921 642.80579 356.1921 654.82819 369.8123 494.243 369.8123"></polygon></g><g style="opacity:.2;"><polygon points="552.79519 401.6757 547.77949 384.2843 657.165 384.2843 666.46809 401.6757 552.79519 401.6757" style="fill:#fff;"></polygon></g><g style="opacity:.1;"><polygon points="138.9262 332.0466 233.7497 332.0466 238.2006 322.8645 146.491 322.8645 138.9262 332.0466"></polygon></g><g style="opacity:.1;"><polygon points="269.5002 342.5719 276.46459 332.0466 352.82379 332.0466 349.59039 342.5719 269.5002 342.5719"></polygon></g><g style="opacity:.1;"><polygon points="435.02789 419.0672 432.45729 401.6757 375.43819 401.6757 374.26979 419.0672 435.02789 419.0672"></polygon></g><g style="opacity:.1;"><path d="M477.27329,384.2843l-2.5449-14.472h94.16061s7.84669,14.472,7.21049,14.472h-98.8262Z"></path></g></g><g style="opacity:.2;"><polygon points="207.11 429.0816 216.2944 414.0609 315.81959 414.6601 310.55779 429.0816 207.11 429.0816" style="fill:#fff;"></polygon></g><g style="opacity:.2;"><polygon points="449.74639 321.8611 449.74639 313.0039 511.77359 313.0039 515.84569 321.8611 449.74639 321.8611" style="fill:#fff;"></polygon></g><g><path d="M680.77208,419.389H68.70619l95.28761-96.2149,423.48139-.9482,.2969,.3086,93,96.8545Zm-607.27048-2H676.07878l-89.4532-93.1611-421.79589,.9443-91.3281,92.2168Z" style="fill:#fff;"></path><path d="M126.7907,407.3636h-43.77738v-2h43.77738c81.8623,0,159.25919-22.2158,159.25919-45.7139,0-23.7685-46.7998-28.4189-127.63719-28.4189v-2c46.5635,0,74.8174,1.5996,94.4742,5.3486,23.9897,4.5762,35.163,12.542,35.163,25.0703,0,12.4004-18.062,24.3682-50.8593,33.6973-31.3155,8.9072-71.5547,14.0166-110.3999,14.0166Z" style="fill:#fff;"></path><path d="M666.87859,407.3636h-47.93459c-80.46191,0-156.53521-23.8252-156.53521-49.0254,0-24.9492,47.9131-29.8301,130.6739-29.8301v2c-67.8086,0-128.6739,2.1289-128.6739,27.8301,0,23.7324,76.5459,47.0254,154.53521,47.0254h47.93459v2Z" style="fill:#fff;"></path><path d="M639.567,376.4788h-121.85451l-16.5507-29.9092,108.9404-.8476,29.46481,30.7568Zm-120.67481-2h115.9893l-25.627-26.7509-104.7138,.8164,14.3515,25.9345Z" style="fill:#fff;"></path><path d="M232.2296,375.9534H111.7228l25.624-25.873,.4136-.0029,108.7642-.7041-14.295,26.58Zm-115.7109-2h114.5156l12.1319-22.5586-104.9795,.6797-21.668,21.8789Z" style="fill:#fff;"></path><path d="M231.632,375.9534v-2c26.4926,0,46.28849-6.0517,46.28849-11.4629,0-5.621-16.6186-9.8867-32.2553-11.0468l.1474-1.9942c16.9776,1.2588,34.1079,5.7793,34.1079,13.041,0,8.3155-25.0654,13.4629-48.28849,13.4629Z" style="fill:#fff;"></path><path d="M518.30239,376.4788c-24.8428,0-46.6338-7.9726-46.6338-17.0615,0-6.0195,10.1592-10.2236,31.0576-12.8525l.25,1.9843c-25.5,3.208-29.3076,8.1866-29.3076,10.8682,0,6.9648,19.4971,15.0615,44.6338,15.0615v2Z" style="fill:#fff;"></path><rect x="373.81359" y="322.9036" width="2" height="95.8077" style="fill:#fff;"></rect><path d="M374.81359,378.3763c-26.9404,0-48.0434-6.8994-48.0434-15.707,0-8.8086,21.103-15.708,48.0434-15.708s48.0435,6.8994,48.0435,15.708c0,8.8076-21.1035,15.707-48.0435,15.707Zm0-29.415c-27.542,0-46.0434,7.0878-46.0434,13.708,0,6.6191,18.5014,13.707,46.0434,13.707s46.0435-7.0879,46.0435-13.707c0-6.6202-18.501-13.708-46.0435-13.708Z" style="fill:#fff;"></path></g></g></g><g id="freepik--Basketball_hoops--inject-79"><g><g><g><path d="M653.67249,333.9573h-5V199.5291c0-6.5835-5.3564-11.9399-11.93949-11.9399h-34.82221v-5h34.82221c9.34089,0,16.93949,7.5991,16.93949,16.9399v134.4282Z" style="fill:#e0e0e0;"></path><path d="M653.67249,333.9574s-.0126-.3547-.0189-1.0287c-.0043-.6842-.01059-1.6799-.0188-2.9822-.0091-2.6252-.0224-6.475-.0394-11.4305-.0208-9.9177-.0508-24.2495-.088-41.9626-.0209-17.7001-.0459-38.7757-.0737-62.1859-.00169-2.9257-.0035-5.8878-.0053-8.8843-.0007-1.4983-.0015-3.0052-.0022-4.5204,.0061-1.5225-.0118-3.0207-.2986-4.5105-.3065-1.4748-.736-2.9487-1.4481-4.3026-.3019-.7034-.75449-1.3283-1.144-1.9876-.4677-.6078-.8941-1.2519-1.4387-1.801-1.0171-1.1596-2.2306-2.1506-3.54879-2.9734-1.30351-.8548-2.76791-1.4519-4.26871-1.8977-3.0222-.9171-6.2768-.5816-9.51929-.6436-3.24371,.0005-6.51381,.0011-9.80811,.0017-6.5887,.0005-13.2745,.001-20.041,.0015l.2603-.2603v1.0653c0,1.3422,0,2.6813-.0001,3.9345l-.2602-.2603c11.5366,.0017,22.8287,.0032,33.7944,.0048,2.753-.1441,5.614,.5536,7.8863,2.1221,2.2782,1.5608,3.9691,3.8866,4.7873,6.4717,.40311,1.2954,.5399,2.661,.5426,3.9866-.0006,1.3157-.0011,2.6255-.0017,3.9292-.0012,2.6075-.0024,5.1907-.0036,7.7484-.0158,20.4601-.0303,39.2876-.043,55.8292-.0714,33.0492-.1231,56.9469-.1438,66.5365l-.0568-.0568c1.6702,.0147,2.9111,.0256,3.7482,.033,.8308,.01,1.2517,.0239,1.2517,.0239,0,0-.3929,.0138-1.2191,.0238-.84439,.0074-2.096,.0183-3.7808,.0331l-.0569,.0004-.0001-.0574c-.0207-9.5895-.0724-33.4872-.1438-66.5365-.0127-16.5416-.0272-35.3691-.043-55.8292-.0012-2.5577-.0023-5.1409-.0036-7.7484-.0005-1.3037-.0011-2.6135-.0017-3.9292-.0049-1.3032-.1359-2.59-.5231-3.8383-.7868-2.4767-2.4095-4.7065-4.5945-6.2017-2.199-1.5014-4.8757-2.1678-7.6006-2.0292-10.9657,.0015-22.2578,.0031-33.7944,.0047l-.2604,.0001v-.2605c-.0001-1.2532-.0001-2.5923-.0001-3.9345v-1.3258h.2605c6.7665,.0005,13.4523,.001,20.041,.0015,3.2943,.0005,6.5644,.0011,9.80811,.0017,1.62179,.0003,3.23709,.0007,4.84549,.0011,1.6238,.0507,3.2628,.1823,4.813,.6665,1.5471,.4599,3.05551,1.0777,4.3984,1.9584,1.3577,.8486,2.6063,1.8707,3.6535,3.0653,.5597,.5665,1.0001,1.2291,1.4802,1.8562,.402,.6787,.8656,1.3237,1.1772,2.048,.7315,1.3955,1.1744,2.9138,1.488,4.4334,.2946,1.5284,.311,3.0975,.303,4.6056-.0007,1.5192-.0015,3.03-.0022,4.5322-.0018,3.0043-.00359,5.9741-.0053,8.9074-.0278,23.4562-.0528,44.5733-.0737,62.3083-.0371,17.7002-.0671,32.0216-.088,41.9321-.017,4.9303-.0303,8.7606-.0393,11.3724-.00829,1.2869-.0146,2.2711-.0189,2.9471-.0063,.6618-.0189,.9914-.0189,.9914Z" style="fill:#263238;"></path></g><g style="opacity:.3;"><rect x="601.91129" y="182.5319" width="10.1241" height="5.1055"></rect></g><g><polygon points="565.71349 198.8408 594.75119 241.0053 594.75119 122.4675 565.71349 108.5452 565.71349 198.8408" style="fill:#e0e0e0;"></polygon><rect x="594.75119" y="122.4675" width="7.1601" height="118.5378" style="fill:#455a64;"></rect><polygon points="565.606 108.4919 573.07919 108.0514 601.91129 122.4675 594.64369 122.9079 565.606 108.4919" style="fill:#263238;"></polygon><polygon points="584.49569 225.3875 583.49569 225.3875 583.49569 165.3568 574.34539 158.8436 574.34539 210.6488 573.34539 210.6488 573.34539 156.9041 584.49569 164.8411 584.49569 225.3875" style="fill:#FF634A;"></polygon><g><path d="M551.862,226.9736c-.14391,0-.26051-9.4173-.26051-21.0315,0-11.6182,.1166-21.0335,.26051-21.0335,.14369,0,.26029,9.4153,.26029,21.0335,0,11.6142-.1166,21.0315-.26029,21.0315Z" style="fill:#263238;"></path><path d="M544.42569,225.5307c-.0291,0-.0571-.3837-.0832-1.0922-.0188-.7925-.0429-1.808-.0721-3.0412-.0238-2.6916-.0559-6.3227-.093-10.5171l.0197,.0969c-.7713-1.8062-1.6068-3.7625-2.4743-5.7938-2.2624-5.3262-4.2835-10.1588-5.7225-13.667-.6834-1.6948-1.2491-3.098-1.67929-4.1649-.38581-.9879-.58341-1.5408-.55031-1.5549s.2938,.5121,.7369,1.4757c.4692,1.0503,1.0862,2.4316,1.8316,4.1002,1.5257,3.4712,3.6005,8.2811,5.863,13.6073,.8596,2.0346,1.6875,3.9942,2.4519,5.8033,.0132,.0304,.0196,.066,.0198,.0972-.0371,4.1944-.0692,7.8255-.093,10.5171-.0292,1.2333-.0533,2.2488-.0721,3.0412-.0261,.7085-.054,1.0922-.0831,1.0922Z" style="fill:#263238;"></path><path d="M538.23419,224.1989c-.0247,0-.0485-.2435-.07119-.6992-.01731-.537-.03841-1.19-.06371-1.9721-.0241-1.8016-.0561-4.1927-.0939-7.0116l.0182,.0892c-1.025-2.3889-2.2068-5.1437-3.4634-8.0724-1.99419-4.6947-3.7726-8.9558-5.0358-12.0502-.5932-1.4818-1.08739-2.7164-1.4711-3.675-.3367-.8723-.5072-1.3613-.4741-1.3753,.0331-.0141,.2666,.4481,.6606,1.296,.4235,.9417,.9689,2.1546,1.6235,3.6103,1.35,3.0576,3.182,7.2959,5.1763,11.9906,1.2353,2.9377,2.39741,5.7009,3.4051,8.0972,.0122,.0276,.018,.0612,.0182,.0896-.0377,2.8189-.0698,5.21-.09389,7.0116-.02521,.7822-.04631,1.4352-.06361,1.9721-.0226,.4557-.0465,.6992-.0712,.6992Z" style="fill:#263238;"></path><path d="M556.987,225.8082c-.02911,0-.05711-.3837-.08321-1.0922-.01879-.7925-.04279-1.808-.0721-3.0412-.0238-2.6916-.0559-6.3227-.093-10.5171-.0003-.0332,.0078-.0684,.0198-.0973,.7644-1.8091,1.5923-3.7686,2.4519-5.8033,2.2625-5.3261,4.3373-10.136,5.863-13.6073,.7453-1.6685,1.3624-3.0498,1.83161-4.1002,.44319-.9635,.70389-1.4897,.737-1.4756,.03309,.0141-.16461,.567-.55041,1.5549-.4302,1.0669-.9959,2.47-1.6793,4.1649-1.439,3.5081-3.4601,8.3408-5.7225,13.667-.8675,2.0312-1.703,3.9876-2.4743,5.7938l.0197-.0969c-.0371,4.1944-.06919,7.8255-.093,10.5171-.02919,1.2332-.0533,2.2488-.0721,3.0412-.02609,.7085-.054,1.0922-.08309,1.0922Z" style="fill:#263238;"></path><path d="M563.17849,224.4763c-.0247,0-.0486-.2434-.0712-.6991-.0174-.537-.0384-1.19-.0637-1.9721-.0241-1.8017-.0562-4.1927-.0939-7.0116-.0004-.0302,.00731-.0635,.0182-.0896,1.0077-2.3963,2.1698-5.1596,3.4052-8.0972,1.9942-4.6948,3.8262-8.933,5.1762-11.9906,.6546-1.4557,1.2-2.6686,1.6235-3.6103,.394-.8479,.6275-1.3101,.6606-1.296,.0331,.014-.13739,.503-.474,1.3752-.3838,.9586-.878,2.1932-1.4712,3.675-1.26319,3.0944-3.0416,7.3555-5.0358,12.0503-1.2565,2.9287-2.43839,5.6835-3.46339,8.0724l.01819-.0892c-.0378,2.8189-.0698,5.21-.094,7.0116-.02519,.7822-.04619,1.4352-.0636,1.9721-.02259,.4557-.0465,.6991-.0711,.6991Z" style="fill:#263238;"></path><path d="M563.40759,214.0564c-.0445,.0078-.0084-.2017-.228-.4709-.2118-.2674-.6372-.5687-1.2462-.834-1.22039-.5346-3.1346-.9536-5.5182-1.2028-2.387-.2385-5.2551-.2999-8.4258-.1142-1.584,.0953-3.2449,.2537-4.94139,.5427-.84641,.1491-1.70391,.3288-2.54291,.588-.4179,.1305-.8332,.282-1.2143,.4792-.3669,.1848-.76279,.4733-.7897,.7391-.0544,.2484,.3166,.5592,.675,.7547,.374,.2048,.786,.3626,1.2015,.4982,.8343,.2695,1.6917,.4532,2.53741,.6052,1.69469,.2989,3.35619,.4584,4.93979,.5587,3.1696,.1901,6.0407,.1295,8.4369-.0187,2.3921-.1746,4.329-.4637,5.5829-.916,.62641-.2203,1.0747-.4874,1.29841-.7445,.22639-.2614,.19029-.4731,.23459-.4647-.0097-.0131,.069,.2154-.1512,.5284-.2166,.3038-.6766,.6143-1.3092,.8701-1.2693,.5241-3.2187,.8703-5.6267,1.0938-2.4121,.1965-5.2944,.2959-8.4934,.1306-1.5983-.088-3.2758-.2383-5.0006-.5352-.8617-.1516-1.7363-.3353-2.6087-.6149-.4356-.1417-.8715-.3056-1.2955-.537-.21-.1223-.4198-.2553-.6105-.445-.1853-.1794-.372-.4811-.32779-.8249,.04459-.3384,.25409-.5678,.44509-.7336,.1986-.1671,.4083-.2991,.622-.4058,.4266-.2197,.8635-.3766,1.3001-.5124,.8741-.268,1.74881-.4478,2.6107-.5961,1.7254-.2869,3.4026-.436,5.0009-.519,3.1965-.1607,6.0866-.0607,8.4934,.2274,2.4031,.299,4.332,.7774,5.56281,1.385,.61359,.3013,1.04609,.6467,1.24689,.9579,.20911,.3166,.1322,.5434,.1417,.5307Z" style="fill:#263238;"></path><path d="M568.91049,201.2991c-.0218,.0075-.0186-.2913-.4399-.5693-.4047-.2745-1.0909-.5421-2.0009-.7819-1.823-.4802-4.5395-.8789-7.9101-1.1379-3.3712-.2558-7.4042-.3785-11.8712-.208-2.23239,.0899-4.575,.2509-6.9813,.5662-1.2016,.1612-2.4218,.3573-3.6317,.6488-.6038,.1469-1.2067,.3173-1.7821,.5433-.2836,.1176-.5647,.2452-.8099,.4051-.24739,.155-.4331,.3743-.4365,.5328,.0026,.158,.1864,.3778,.4342,.5329,.2448,.1602,.52591,.2881,.8095,.4058,.5755,.2262,1.1786,.3968,1.7825,.5437,1.2102,.2918,2.4307,.4879,3.6327,.6492,2.4068,.3155,4.7499,.4765,6.9826,.5664,4.4677,.1705,8.5009,.0478,11.872-.2081,3.3707-.259,6.0869-.6577,7.9097-1.1379,.91-.2398,1.596-.5074,2.0006-.7819,.4212-.2779,.418-.5766,.4398-.5692,.0169-.0185,.0519,.3291-.3773,.6535-.4049,.3164-1.0954,.6196-2.008,.8927-1.8289,.5464-4.5525,1.0024-7.9341,1.3098-3.3824,.304-7.4294,.4655-11.9202,.3206-2.2447-.0773-4.601-.2286-7.0315-.54-1.2146-.1596-2.4487-.3547-3.6881-.6515-.61929-.15-1.24029-.3238-1.854-.5645-.3055-.1269-.6109-.2635-.905-.4554-.2732-.1895-.6302-.4579-.6662-.9678,.0395-.5096,.3958-.7747,.6692-.9647,.2941-.1914,.5994-.3277,.9048-.4544,.6136-.2404,1.2344-.414,1.8536-.564,1.239-.2965,2.4727-.4915,3.6871-.651,2.4299-.3113,4.7857-.4627,7.0301-.5399,4.49011-.1449,8.5369,.0166,11.9193,.3206,3.3816,.3073,6.1054,.7633,7.9346,1.3097,.9127,.2731,1.6033,.5763,2.0083,.8927,.4293,.3244,.3943,.6721,.3774,.6536Z" style="fill:#263238;"></path></g><g><rect x="573.71549" y="188.2235" width="4.1328" height="2" style="fill:#FF634A;"></rect><path d="M550.47039,195.9813c-12.0489,0-24.2461-2.3213-24.2461-6.7578,0-4.4361,12.1972-6.7574,24.2461-6.7574,12.0478,0,24.2451,2.3213,24.2451,6.7574,0,4.4365-12.1973,6.7578-24.2451,6.7578Zm0-11.5152c-14.6055,0-22.2461,3.0972-22.2461,4.7574,0,1.6606,7.6406,4.7578,22.2461,4.7578s22.2451-3.0972,22.2451-4.7578c0-1.6602-7.6397-4.7574-22.2451-4.7574Z" style="fill:#FF634A;"></path></g><g style="opacity:.3;"><polygon points="567.64189 178.1701 567.93429 112.8367 592.61789 125.5402 567.64189 178.1701" style="fill:#fff;"></polygon></g><g style="opacity:.3;"><polygon points="566.97779 187.6374 592.61789 135.8109 592.61789 146.8828 567.64189 198.296 566.97779 187.6374" style="fill:#fff;"></polygon></g></g></g><polygon points="657.60379 372.7796 633.09479 346.7246 645.591 298.706 648.75829 301.1079 658.656 301.1079 681.38118 372.7796 657.60379 372.7796" style="fill:#FF634A;"></polygon><g style="opacity:.3;"><polygon points="681.38118 372.7796 657.60379 372.7796 648.75829 301.1079 658.656 301.1079 681.38118 372.7796"></polygon></g><polygon points="645.591 298.706 654.343 298.706 658.656 301.1079 648.75829 301.1079 645.591 298.706" style="fill:#FF634A;"></polygon><path d="M594.75129,241.0053c-.0061,.0042-.0601-.0605-.16-.1916-.1122-.1516-.2557-.3456-.436-.5893-.3937-.5492-.9466-1.32-1.6545-2.3072-1.4462-2.0495-3.5232-4.9929-6.12379-8.6783-5.21231-7.4552-12.51921-17.9063-20.97621-30.0023l-.04479-.064v-.0789c-.00331-6.1816-.00681-12.8615-.01041-19.7729,.0297-19.5488,.0567-37.2429,.0762-50.0858,.0348-6.3856,.0631-11.5631,.0828-15.1779,.021-1.7678,.0373-3.1521,.0489-4.1265,.0108-.4502,.0194-.805,.0259-1.0731,.0087-.2418,.01761-.3656,.02661-.3656s.01789,.1238,.02659,.3656c.0065,.2681,.015,.6229,.0259,1.0731,.01151,.9744,.0279,2.3587,.0488,4.1265,.01971,3.6148,.048,8.7923,.0828,15.1779,.0195,12.8429,.0465,30.537,.0762,50.0858-.0036,6.9114-.0071,13.5913-.0104,19.7729l-.0447-.1425c8.39581,12.1386,15.6499,22.6264,20.8244,30.1078,2.5497,3.7208,4.5862,6.6925,6.004,8.7616,.6791,1.0073,1.20941,1.7939,1.5871,2.3542,.1656,.2538,.2975,.4559,.4007,.6138,.088,.1394,.1299,.2124,.1239,.2167Z" style="fill:#263238;"></path></g><g><g><g><g><path d="M103.8126,338.3187h-5V203.8909c0-9.3408,7.5992-16.9399,16.94-16.9399h34.8213v5h-34.8213c-6.5835,0-11.94,5.3564-11.94,11.9399v134.4278Z" style="fill:#e0e0e0;"></path><path d="M103.8127,338.3187s-.0123-.3376-.0184-.979c-.0043-.6516-.0104-1.5994-.0185-2.8391-.0088-2.5005-.0217-6.1682-.0383-10.894-.0201-9.4592-.0493-23.1428-.0855-40.097-.0211-16.942-.0463-37.1489-.0744-59.6587-.0035-5.6262-.007-11.3961-.0107-17.2949,.0204-1.4702-.0754-2.9569,.148-4.4791,.2233-1.5059,.7373-2.9771,1.5127-4.3062,1.5407-2.6647,4.1506-4.7362,7.1768-5.5941,1.5015-.4577,3.127-.5112,4.6589-.4799,1.5513-.0004,3.1096-.0008,4.6745-.0013,3.1299-.0007,6.2863-.0014,9.4675-.0021,6.3624-.0008,12.8235-.0016,19.3685-.0024l-.26,.26c-.0001-1.5771-.0002-3.2858-.0003-4.9998l.2603,.2602c-1.2362,0-2.5743,.0001-3.9156,.0001-5.8746-.0004-11.6892-.0007-17.4328-.001-2.8719-.0004-5.726-.0009-8.561-.0013-1.4176-.0002-2.8303-.0005-4.2382-.0008-.7091-.0162-1.3929,.0422-2.0846,.0712-.688,.0498-1.3681,.1826-2.0458,.2929-2.685,.5967-5.2159,1.8194-7.2875,3.5723-2.0513,1.768-3.7074,3.9842-4.7055,6.4613-.2154,.6307-.4972,1.2392-.6329,1.8917l-.249,.9636c-.0644,.3247-.1041,.654-.1575,.9802-.2199,1.3053-.1954,2.6265-.2023,3.9623-.0012,2.6612-.0023,5.2981-.0035,7.9091-.0156,20.8871-.03,40.1272-.0427,57.037-.0722,33.7851-.1246,58.2401-.1454,67.9687l-.0568-.0568c1.6703,.0147,2.9111,.0257,3.7482,.033,.8308,.0101,1.2518,.0239,1.2518,.0239,0,0-.393,.0138-1.2192,.0239-.8443,.0074-2.096,.0183-3.7808,.033l-.0569,.0005-.0001-.0575c-.0208-9.7285-.0731-34.1836-.1454-67.9687-.0126-16.9098-.027-36.1499-.0426-57.037-.0012-2.611-.0024-5.2479-.0036-7.9091,.0058-1.3197-.0208-2.6902,.2045-4.0355,.0546-.3361,.0958-.6753,.162-1.0098l.2554-.9931c.1405-.6721,.4283-1.2999,.6509-1.9496,1.027-2.5529,2.7305-4.8375,4.8434-6.6596,2.133-1.8071,4.7409-3.0699,7.5094-3.6855,.6983-.115,1.3997-.2513,2.1087-.3031,.7097-.0313,1.4283-.09,2.1278-.0739l4.2382-.0009c2.835-.0003,5.6891-.0008,8.561-.0012,5.7436-.0003,11.5582-.0006,17.4328-.001,1.3413,0,2.6794,.0001,3.9156,.0001h.2604v.2604c-.0001,1.714-.0001,3.4227-.0002,4.9998v.2602h-.2602c-6.545-.0008-13.0061-.0016-19.3685-.0024-3.1812-.0007-6.3376-.0014-9.4675-.0021-1.5649-.0005-3.1232-.0009-4.6745-.0013-1.5634-.0311-3.0652,.0203-4.5198,.4574-2.8995,.8198-5.4052,2.8049-6.8848,5.3596-.7447,1.2741-1.2385,2.6841-1.4539,4.1282-.2153,1.4344-.126,2.9342-.1464,4.4124-.0037,5.9141-.0072,11.6989-.0107,17.3396-.0281,22.5519-.0533,42.7965-.0745,59.7701-.0361,16.9395-.0653,30.6111-.0854,40.0621-.0167,4.7009-.0295,8.3493-.0383,10.8366-.0081,1.2248-.0142,2.1611-.0184,2.8048-.0062,.6296-.0184,.9426-.0184,.9426Z" style="fill:#263238;"></path></g><g style="opacity:.3;"><rect x="140.4498" y="186.8937" width="10.1242" height="5.1055" transform="translate(291.0238 378.8929) rotate(180)"></rect></g><g><polygon points="186.7718 203.2026 157.734 246.9582 157.734 126.8292 186.7718 112.907 186.7718 203.2026" style="fill:#e0e0e0;"></polygon><rect x="150.574" y="126.8292" width="7.16" height="120.129" style="fill:#455a64;"></rect><polygon points="186.8793 112.8536 179.406 112.4132 150.574 126.8292 157.8415 127.2696 186.8793 112.8536" style="fill:#263238;"></polygon><polygon points="168.9894 229.7493 167.9894 229.7493 167.9894 169.2029 179.1398 161.2659 179.1398 215.0106 178.1398 215.0106 178.1398 163.2054 168.9894 169.7186 168.9894 229.7493" style="fill:#FF634A;"></polygon><g><path d="M200.6233,231.3353c-.1438,0-.2604-9.4173-.2604-21.0315,0-11.6182,.1166-21.0335,.2604-21.0335s.2604,9.4153,.2604,21.0335c0,11.6142-.1166,21.0315-.2604,21.0315Z" style="fill:#263238;"></path><path d="M208.0596,229.8925c-.0291,0-.0571-.3837-.0832-1.0922-.0187-.7925-.0428-1.808-.072-3.0412-.0238-2.6916-.056-6.3228-.0931-10.5171-.0003-.0333,.0078-.0684,.0198-.0973,.7644-1.8091,1.5923-3.7687,2.452-5.8033,2.2624-5.3262,4.3372-10.136,5.8629-13.6073,.7454-1.6685,1.3624-3.0498,1.8316-4.1002,.4432-.9635,.7039-1.4897,.737-1.4756,.0331,.014-.1646,.5669-.5504,1.5549-.4301,1.0668-.9959,2.47-1.6792,4.1649-1.439,3.5081-3.4602,8.3407-5.7226,13.6669-.8675,2.0313-1.703,3.9877-2.4743,5.7938l.0197-.0968c-.0371,4.1943-.0692,7.8255-.093,10.5171-.0292,1.2332-.0533,2.2487-.072,3.0412-.0261,.7085-.0541,1.0922-.0832,1.0922Z" style="fill:#263238;"></path><path d="M214.2511,228.5606c-.0247,0-.0486-.2435-.0712-.6991-.0173-.537-.0384-1.19-.0637-1.9721-.0241-1.8017-.0561-4.1927-.0939-7.0116-.0004-.0302,.0074-.0635,.0182-.0897,1.0077-2.3962,2.1698-5.1595,3.4052-8.0971,1.9942-4.6948,3.8262-8.9331,5.1762-11.9906,.6546-1.4557,1.2-2.6686,1.6235-3.6103,.394-.8479,.6276-1.3101,.6607-1.2961,.033,.0141-.1375,.5031-.4741,1.3753-.3837,.9585-.878,2.1932-1.4712,3.675-1.2632,3.0944-3.0416,7.3555-5.0358,12.0503-1.2565,2.9286-2.4384,5.6834-3.4634,8.0724l.0182-.0892c-.0378,2.8189-.0698,5.21-.0939,7.0116-.0253,.7821-.0463,1.4352-.0637,1.9721-.0226,.4556-.0464,.6991-.0711,.6991Z" style="fill:#263238;"></path><path d="M195.4983,230.17c-.0291,0-.0571-.3837-.0832-1.0922-.0188-.7926-.0428-1.8081-.0721-3.0412-.0238-2.6917-.0559-6.3228-.093-10.5172l.0197,.0969c-.7713-1.8061-1.6068-3.7625-2.4742-5.7938-2.2625-5.3262-4.2836-10.1588-5.7226-13.6669-.6834-1.6949-1.2491-3.098-1.6792-4.165-.3858-.9879-.5835-1.5408-.5504-1.5549,.0331-.014,.2938,.5121,.7369,1.4757,.4692,1.0503,1.0863,2.4316,1.8316,4.1002,1.5257,3.4713,3.6005,8.2811,5.863,13.6073,.8596,2.0346,1.6875,3.9942,2.4519,5.8033,.0133,.0304,.0196,.066,.0198,.0972-.0371,4.1944-.0692,7.8256-.093,10.5172-.0292,1.2332-.0533,2.2487-.0721,3.0412-.0261,.7085-.054,1.0922-.0831,1.0922Z" style="fill:#263238;"></path><path d="M189.3068,228.8381c-.0247,0-.0485-.2435-.0712-.6991-.0173-.537-.0384-1.19-.0636-1.9722-.0242-1.8016-.0562-4.1927-.094-7.0116l.0182,.0893c-1.0249-2.389-2.2068-5.1438-3.4633-8.0724-1.9943-4.6948-3.7726-8.9559-5.0359-12.0503-.5931-1.4818-1.0874-2.7164-1.4711-3.675-.3367-.8723-.5072-1.3613-.4741-1.3753,.0331-.0141,.2666,.4481,.6607,1.296,.4234,.9417,.9688,2.1546,1.6234,3.6103,1.35,3.0576,3.182,7.2959,5.1763,11.9907,1.2354,2.9376,2.3974,5.7008,3.4051,8.0971,.0122,.0276,.018,.0613,.0182,.0896-.0377,2.819-.0697,5.21-.0939,7.0116-.0252,.7822-.0463,1.4352-.0636,1.9722-.0226,.4556-.0465,.6991-.0712,.6991Z" style="fill:#263238;"></path><path d="M188.8951,218.4461c.0097,.0133-.067-.2168,.1487-.5321,.2067-.3096,.6444-.6522,1.2624-.9538,1.2413-.6015,3.1782-1.096,5.5966-1.3991,2.4207-.3011,5.3299-.4066,8.5467-.2482,1.6087,.0813,3.2965,.23,5.0332,.5164,.8675,.1479,1.7479,.3281,2.628,.5954,.4395,.1358,.8794,.2926,1.309,.5123,.2154,.106,.4263,.2395,.627,.405,.1927,.1653,.4049,.3927,.4534,.7325,.0481,.3453-.1384,.6515-.3248,.8324-.1917,.1915-.403,.3253-.6144,.4481-.4267,.2326-.8654,.3971-1.3039,.5393-.8781,.2806-1.7584,.4645-2.6256,.6164-1.736,.2967-3.4242,.4471-5.0328,.5339-3.2196,.1624-6.1197,.0594-8.5469-.1367-2.4236-.2213-4.3849-.5637-5.6669-1.0767-.6387-.2514-1.1057-.5553-1.3302-.8559-.2282-.311-.1496-.543-.1595-.5292,.0445-.0087,.0085,.205,.2416,.4639,.2307,.2539,.6861,.515,1.3188,.7312,1.2672,.4418,3.2165,.7272,5.6246,.8995,2.4118,.148,5.3013,.2122,8.4913,.0248,1.5939-.099,3.266-.2587,4.972-.5573,.8512-.1524,1.7143-.3363,2.5543-.6069,.4183-.136,.8332-.2945,1.2097-.5004,.3615-.1965,.7333-.51,.6762-.7594-.0294-.2691-.4332-.5565-.8021-.7421-.3843-.1976-.8027-.3492-1.2238-.4797-.8452-.2587-1.7083-.4388-2.5604-.5874-1.7078-.2887-3.3795-.4466-4.9737-.5403-3.1914-.1833-6.0774-.1166-8.4787,.1349-2.3994,.2532-4.3217,.6883-5.5538,1.2174-.6139,.2656-1.0446,.5648-1.262,.8307-.2253,.2679-.1891,.4791-.234,.4711Z" style="fill:#263238;"></path><path d="M183.5748,205.6609c-.0169,.0185-.0519-.3292,.3773-.6536,.405-.3164,1.0956-.6196,2.0083-.8927,1.8292-.5464,4.553-1.0025,7.9346-1.3098,3.3824-.304,7.4292-.4654,11.9193-.3206,2.2444,.0773,4.6002,.2286,7.0302,.5399,1.2143,.1595,2.448,.3546,3.6871,.6511,.6191,.1499,1.2399,.3236,1.8535,.5639,.3054,.1267,.6107,.263,.9048,.4544,.2734,.1901,.6298,.4552,.6692,.9647-.0359,.51-.393,.7783-.6662,.9678-.2941,.192-.5994,.3286-.905,.4555-.6137,.2406-1.2347,.4144-1.854,.5645-1.2394,.2967-2.4734,.4918-3.6881,.6514-2.4305,.3115-4.7868,.4628-7.0315,.5401-4.4907,.1449-8.5378-.0167-11.9202-.3207-3.3816-.3073-6.1052-.7634-7.9341-1.3098-.9126-.2731-1.6031-.5763-2.008-.8927-.4291-.3244-.3941-.672-.3772-.6534,.0218-.0075,.0186,.2912,.4397,.5691,.4046,.2746,1.0907,.5421,2.0006,.782,1.8228,.4801,4.539,.8788,7.9097,1.1379,3.3712,.2558,7.4044,.3785,11.872,.208,2.2327-.0899,4.5758-.2509,6.9826-.5663,1.202-.1613,2.4225-.3575,3.6328-.6492,.6038-.147,1.207-.3176,1.7825-.5438,.2835-.1177,.5646-.2456,.8094-.4058,.2478-.155,.4316-.3748,.4342-.5329-.0034-.1585-.1891-.3777-.4365-.5328-.2451-.1598-.5263-.2875-.8098-.405-.5754-.226-1.1784-.3965-1.7821-.5433-1.21-.2916-2.4301-.4876-3.6318-.6488-2.4063-.3153-4.7489-.4763-6.9813-.5662-4.467-.1705-8.4999-.0479-11.8711,.208-3.3707,.2589-6.0871,.6577-7.9102,1.1378-.91,.2399-1.5962,.5075-2.0009,.782-.4212,.278-.418,.5767-.4398,.5693Z" style="fill:#263238;"></path></g><g><rect x="174.6369" y="192.5853" width="4.1323" height="2" style="fill:#FF634A;"></rect><path d="M202.0148,200.3426c-12.0484,0-24.2456-2.3213-24.2456-6.7573s12.1972-6.7574,24.2456-6.7574,24.2456,2.3213,24.2456,6.7574-12.1973,6.7573-24.2456,6.7573Zm0-11.5147c-14.6055,0-22.2456,3.0972-22.2456,4.7574,0,1.6601,7.6401,4.7573,22.2456,4.7573s22.2456-3.0972,22.2456-4.7573c0-1.6602-7.6401-4.7574-22.2456-4.7574Z" style="fill:#FF634A;"></path></g><g style="opacity:.3;"><polygon points="184.8433 182.5318 184.5509 117.1984 159.8673 129.902 184.8433 182.5318" style="fill:#fff;"></polygon></g><g style="opacity:.3;"><polygon points="185.5074 191.9992 159.8673 140.1727 159.8673 151.2445 184.8433 202.6577 185.5074 191.9992" style="fill:#fff;"></polygon></g></g></g><polygon points="94.8814 377.1414 119.3905 351.0863 106.8942 303.0677 103.7269 305.4696 93.8292 305.4696 71.10404 377.1414 94.8814 377.1414" style="fill:#FF634A;"></polygon><g style="opacity:.3;"><polygon points="71.10404 377.1414 94.8814 377.1414 103.7269 305.4696 93.8292 305.4696 71.10404 377.1414"></polygon></g><polygon points="106.8942 303.0677 98.1422 303.0677 93.8292 305.4696 103.7269 305.4696 106.8942 303.0677" style="fill:#FF634A;"></polygon></g><path d="M157.6803,246.9582c-.0063-.0042,.0355-.0805,.1233-.2261,.1026-.1646,.2343-.376,.3999-.6419,.3767-.5854,.9062-1.4084,1.5843-2.4625,1.4149-2.1634,3.4472-5.2709,5.9899-9.1589,5.1598-7.8164,12.3868-18.7644,20.7311-31.4049l-.0418,.1383c.0041-5.9378,.0085-12.3215,.0131-18.9139,.0533-19.7162,.1014-37.5619,.1364-50.5143,.0425-6.4405,.077-11.6625,.101-15.3076,.0231-1.7833,.0411-3.1796,.0538-4.1618l.0272-1.0823c.009-.2438,.0181-.3687,.0271-.3687,.0089,0,.0177,.1249,.0261,.3688,.0062,.27,.0143,.6279,.0246,1.0823,.0103,.9823,.0251,2.3785,.0439,4.1619,.0154,3.6452,.0374,8.8672,.0645,15.3079,.0042,12.9523,.0099,30.7981,.0162,50.5144-.0111,6.5925-.0219,12.9761-.0319,18.9139l-.0001,.076-.0418,.0627c-8.4059,12.5995-15.6865,23.5122-20.8843,31.3032-2.5948,3.8534-4.6687,6.9334-6.1125,9.0776-.7079,1.0344-1.2605,1.8421-1.6536,2.4165-.1806,.2559-.3242,.4594-.4361,.6179-.1,.1375-.1541,.2056-.1603,.2015Z" style="fill:#263238;"></path></g></g></svg>
