<svg viewBox="0 0 1024 1054.968" xmlns="http://www.w3.org/2000/svg"><path d="M511.884 21.333c61.938 0 112.15 50.21 112.15 112.15S573.82 245.63 511.883 245.63s-112.15-50.21-112.15-112.148c.08-61.906 50.244-112.07 112.142-112.15h.008zm0 177.763c36.238 0 65.614-29.376 65.614-65.614s-29.376-65.614-65.614-65.614-65.614 29.376-65.614 65.614c.053 36.216 29.398 65.56 65.61 65.614h.004zM668.24 355.453h-46.534c0-60.653-49.17-109.822-109.822-109.822S402.062 294.8 402.062 355.454h-46.535c0-86.354 70.003-156.357 156.357-156.357S668.24 269.1 668.24 355.453zm199.17 198.704c61.938 0 112.15 50.21 112.15 112.15s-50.212 112.148-112.15 112.148-112.15-50.21-112.15-112.15c.08-61.905 50.244-112.07 112.142-112.148h.008zm0 177.764c36.238 0 65.614-29.375 65.614-65.613s-29.376-65.614-65.614-65.614-65.614 29.376-65.614 65.614c.053 36.216 29.398 65.56 65.61 65.614h.004zM710.588 888.837c0-86.482 70.108-156.59 156.59-156.59s156.59 70.108 156.59 156.59h-46.535c0-60.782-49.273-110.055-110.055-110.055s-110.055 49.274-110.055 110.056zm-554.23-334.68c61.937 0 112.148 50.212 112.148 112.15s-50.21 112.15-112.15 112.15c-61.937 0-112.148-50.212-112.148-112.15.08-61.906 50.243-112.07 112.14-112.15h.01zm0 177.765c36.237 0 65.613-29.375 65.613-65.613s-29.375-65.614-65.613-65.614-65.614 29.376-65.614 65.614c.053 36.216 29.398 65.56 65.61 65.614h.004zM313.18 888.837h-46.535c0-60.782-49.273-110.055-110.055-110.055S46.535 828.055 46.535 888.837H0c0-86.482 70.108-156.59 156.59-156.59s156.59 70.108 156.59 156.59zM91.627 505.296l-46.535-3.07C56.226 339.283 149.432 200.36 283.315 125.48l2.362-1.214 22.476 40.765c-122.86 68.27-206.867 193.474-216.46 339.008l-.067 1.256zm840.513 0c-9.6-146.835-93.602-272.098-214.35-339.314l-2.13-1.09 22.476-40.764c136.245 76.136 229.427 215.116 240.414 376.66l.078 1.436zM511.884 1045.1c-63.79-.052-124.56-12.91-179.904-36.138l3.07 1.144 17.638-43.045c47.047 19.93 101.757 31.51 159.173 31.51s112.126-11.58 161.922-32.535l-2.75 1.027 17.638 43.045c-52.258 22.08-113.013 34.936-176.764 34.994h-.022z"/></svg>