<svg fill="none" height="120" viewBox="0 0 65 120" width="65" xmlns="http://www.w3.org/2000/svg"><path clip-rule="evenodd" d="m34.27 22c.8092-.0011 1.4774.6319 1.52 1.44 2.3749.267 4.1796 2.2603 4.21 4.65v10.09c-.0055 2.6211-2.1289 4.7445-4.75 4.75h-6.5c-2.6211-.0055-4.7445-2.1289-4.75-4.75v-10.09c.0304-2.3897 1.8351-4.383 4.21-4.65.0475-.8058.7128-1.4361 1.52-1.44zm.02 1.44h-4.56v1.19h4.56zm4.21 14.74c0 1.7966-1.4535 3.2545-3.25 3.26h-6.5c-1.7965-.0055-3.25-1.4634-3.25-3.26v-10.09c.004-1.5911 1.1594-2.9454 2.73-3.2.1228.7314.7584 1.2653 1.5 1.26h4.54c.7416.0053 1.3772-.5286 1.5-1.26 1.5706.2546 2.726 1.6089 2.73 3.2zm-6.45-7.22h-3.12c-.4142 0-.75-.3358-.75-.75s.3358-.75.75-.75h3.12c.4142 0 .75.3358.75.75s-.3358.75-.75.75zm-3.12 1.61h6.14c.4142 0 .75.3358.75.75s-.3358.75-.75.75h-6.14c-.4142 0-.75-.3358-.75-.75s.3358-.75.75-.75zm5.3 2.93h-5.3c-.4142 0-.75.3358-.75.75s.3358.75.75.75h5.3c.4142 0 .75-.3358.75-.75s-.3358-.75-.75-.75z" fill="#0b1c3f" fill-rule="evenodd"/></svg>