<svg fill="none" height="120" viewBox="0 0 65 120" width="65" xmlns="http://www.w3.org/2000/svg"><path clip-rule="evenodd" d="m35.4391 79.69v-.17c0-.8395-.6805-1.52-1.52-1.52h-4.54c-.8395 0-1.52.6805-1.52 1.52v.14c-2.1913.1828-3.8728 2.0211-3.86 4.22v10.64c0 1.1209.446 2.1958 1.2395 2.9875.7936.7917 1.8696 1.2352 2.9905 1.2325h6.85c1.1209.0027 2.1969-.4408 2.9905-1.2325.7935-.7917 1.2395-1.8666 1.2395-2.9875v-10.64c-.008-2.189-1.6885-4.0085-3.87-4.19zm-6.0611-.17h4.56v1.19h-4.56zm2.3228 5.62h-3.12c-.4142 0-.75.3358-.75.75s.3358.75.75.75h3.12c.4142 0 .75-.3358.75-.75s-.3358-.75-.75-.75zm2.19 7.55h-5.31c-.4142 0-.75-.3358-.75-.75s.3358-.75.75-.75h5.31c.4142 0 .75.3358.75.75s-.3358.75-.75.75zm-5.31-2.93h6.14c.4142 0 .75-.3358.75-.75s-.3358-.75-.75-.75h-6.14c-.4142 0-.75.3358-.75.75s.3358.75.75.75z" fill="#0b1c3f" fill-rule="evenodd"/></svg>