<svg height="24" viewBox="0 0 24 24" width="24" xmlns="http://www.w3.org/2000/svg"><path d="m7 22c-1.65685425 0-3-1.3431458-3-3v-6h-1c-.89090485 0-1.33707164-1.0771419-.70710678-1.7071068l8.99999998-8.99999998c.3905243-.39052429 1.0236893-.39052429 1.4142136 0l9 8.99999998c.6299648.6299649.1837981 1.7071068-.7071068 1.7071068h-1v6c0 1.6568542-1.3431458 3-3 3zm5-17.58578644-6.64908837 6.64908834c.37918782.1421186.64908837.507889.64908837.9366981v7c0 .5522847.44771525 1 1 1l1.99999525-.001.00000475-3.999c0-1.1045695.8954305-2 2-2h2c1.1045695 0 2 .8954305 2 2l-.0000048 3.999 2.0000048.001c.5522847 0 1-.4477153 1-1v-7c0-.4288091.2699006-.7945795.6490884-.9366981zm.9999952 11.58578644h-2v3.999h2z" fill-rule="evenodd"/></svg>