<svg enable-background="new 595 796 200 200" height="200" viewBox="595 796 200 200" width="200" xmlns="http://www.w3.org/2000/svg"><path d="m700.539 993.184c-1.29 1.77-3.349 2.816-5.539 2.816-2.191 0-4.249-1.047-5.539-2.817l-55.964-76.807c-9.428-13.026-14.404-28.398-14.404-44.47 0-41.855 34.052-75.906 75.907-75.906s75.907 34.051 75.907 75.906c0 16.087-4.971 31.46-14.375 44.455zm-5.539-184.45c-34.834 0-63.174 28.339-63.174 63.172 0 13.373 4.141 26.163 11.976 36.987l51.199 70.271 51.228-70.284c7.81-10.793 11.945-23.583 11.945-36.973 0-34.834-28.34-63.173-63.174-63.173zm0 97.559c-18.96 0-34.386-15.425-34.386-34.387 0-18.959 15.426-34.385 34.386-34.385 18.961 0 34.388 15.425 34.388 34.385 0 18.962-15.427 34.387-34.388 34.387zm0-56.038c-11.939 0-21.652 9.712-21.652 21.651 0 11.94 9.713 21.654 21.652 21.654 11.94 0 21.654-9.714 21.654-21.654 0-11.939-9.714-21.651-21.654-21.651z"/></svg>