<svg width="51" height="51" viewBox="0 0 51 51" fill="none" xmlns="http://www.w3.org/2000/svg">
<path fill-rule="evenodd" clip-rule="evenodd" d="M13.2281 10.3281C20.199 3.35728 31.5011 3.35728 38.4717 10.3281C45.4427 17.299 45.4427 28.6011 38.4717 35.5717L25.85 48.1937L13.2281 35.5717C6.25729 28.6011 6.25729 17.299 13.2281 10.3281ZM25.85 28.05C28.6667 28.05 30.95 25.7667 30.95 22.95C30.95 20.1333 28.6667 17.85 25.85 17.85C23.0334 17.85 20.75 20.1333 20.75 22.95C20.75 25.7667 23.0334 28.05 25.85 28.05Z" fill="#FF634A"/>
<g clip-path="url(#clip0_599_435)">
<path d="M26.0403 35.1711C32.7855 35.1711 38.2535 29.703 38.2535 22.9579C38.2535 16.2127 32.7855 10.7447 26.0403 10.7447C19.2952 10.7447 13.8271 16.2127 13.8271 22.9579C13.8271 29.703 19.2952 35.1711 26.0403 35.1711Z" fill="url(#paint0_radial_599_435)"/>
<path d="M26.0403 35.1711C32.7855 35.1711 38.2535 29.703 38.2535 22.9579C38.2535 16.2127 32.7855 10.7447 26.0403 10.7447C19.2952 10.7447 13.8271 16.2127 13.8271 22.9579C13.8271 29.703 19.2952 35.1711 26.0403 35.1711Z" fill="url(#paint1_radial_599_435)"/>
<path d="M26.0403 35.1711C32.7855 35.1711 38.2535 29.703 38.2535 22.9579C38.2535 16.2127 32.7855 10.7447 26.0403 10.7447C19.2952 10.7447 13.8271 16.2127 13.8271 22.9579C13.8271 29.703 19.2952 35.1711 26.0403 35.1711Z" fill="url(#paint2_radial_599_435)"/>
<g filter="url(#filter0_d_599_435)">
<path d="M26.0403 35.1711C32.7855 35.1711 38.2535 29.703 38.2535 22.9579C38.2535 16.2127 32.7855 10.7447 26.0403 10.7447C19.2952 10.7447 13.8271 16.2127 13.8271 22.9579C13.8271 29.703 19.2952 35.1711 26.0403 35.1711Z" fill="url(#paint3_radial_599_435)" shape-rendering="crispEdges"/>
</g>
<path d="M13.8525 22.1639C13.8357 22.4264 13.8271 22.6911 13.8271 22.9579C13.8271 23.0099 13.8275 23.0619 13.8281 23.1137C14.08 23.0163 14.3846 22.8905 14.725 22.734C15.6819 22.2939 16.9329 21.6062 18.0905 20.618C18.936 19.8962 19.7388 19.008 20.338 17.9324C21.0349 18.2961 21.7011 18.6733 22.3375 19.0609C20.6502 21.0532 19.5195 23.0916 18.7654 24.9768C17.8748 27.2034 17.5126 29.208 17.3732 30.6584C17.3437 30.9646 17.3242 31.2463 17.3117 31.5003C17.5832 31.7777 17.8679 32.0422 18.1647 32.2928C18.1639 31.915 18.1795 31.3871 18.2415 30.7419C18.3747 29.3571 18.7213 27.4361 19.5754 25.3008C20.3069 23.4719 21.413 21.4797 23.0845 19.5292C24.0017 20.1209 24.8535 20.7333 25.6435 21.3557C25.0857 21.9772 24.6156 22.6713 24.2347 23.4129C22.355 27.0734 22.6194 31.9799 25.3385 35.1512C25.5707 35.1643 25.8048 35.171 26.0403 35.171C26.2109 35.171 26.3808 35.1676 26.5497 35.1606C23.6 32.3529 23.1395 27.4553 25.0107 23.8114C25.366 23.1196 25.8038 22.4769 26.3223 21.9054C28.0831 23.3703 29.5138 24.8745 30.6637 26.2866C32.1963 28.1687 33.2301 29.888 33.8797 31.1336C34.0397 31.4403 34.1763 31.7181 34.2913 31.9626C34.5181 31.7546 34.7371 31.5382 34.9477 31.3137C34.8593 31.1324 34.7614 30.9375 34.6532 30.7302C33.9806 29.4405 32.9154 27.6702 31.3401 25.7358C30.1714 24.3005 28.7222 22.7751 26.9451 21.289C27.7607 20.565 28.7347 19.9991 29.862 19.6537C31.9879 19.0024 34.7083 19.1207 38.0098 20.5187C37.9379 20.1639 37.8507 19.8147 37.7487 19.4718C34.5635 18.2413 31.8334 18.1374 29.6065 18.8196C28.3014 19.2194 27.1842 19.8847 26.2607 20.7316C25.4609 20.0976 24.5993 19.4738 23.6723 18.8706C25.7695 16.6137 28.6621 14.4447 32.651 12.6868C32.3518 12.4938 32.0436 12.3135 31.7272 12.1467C27.85 13.9387 25.006 16.1225 22.9228 18.3964C22.2247 17.967 21.4917 17.5498 20.7221 17.1488C20.7897 16.99 20.8528 16.8277 20.911 16.6617C21.3986 15.2712 21.5342 13.6498 21.1123 11.7797C20.8377 11.901 20.5683 12.0321 20.3046 12.1726C20.639 13.8068 20.5005 15.196 20.0878 16.373C20.0425 16.5023 19.9937 16.6293 19.9418 16.754C18.8747 16.2301 17.7408 15.7376 16.5367 15.2863C16.3463 15.5219 16.1644 15.7648 15.9916 16.0145C17.2583 16.4798 18.4461 16.9914 19.559 17.538C19.0231 18.4898 18.3025 19.29 17.5241 19.9545C16.4464 20.8745 15.2711 21.5227 14.3605 21.9414C14.1793 22.0247 14.009 22.0988 13.8525 22.1639Z" fill="black"/>
</g>
<defs>
<filter id="filter0_d_599_435" x="9.82715" y="10.7447" width="32.4268" height="33.4263" filterUnits="userSpaceOnUse" color-interpolation-filters="sRGB">
<feFlood flood-opacity="0" result="BackgroundImageFix"/>
<feColorMatrix in="SourceAlpha" type="matrix" values="0 0 0 0 0 0 0 0 0 0 0 0 0 0 0 0 0 0 127 0" result="hardAlpha"/>
<feOffset dy="5"/>
<feGaussianBlur stdDeviation="2"/>
<feComposite in2="hardAlpha" operator="out"/>
<feColorMatrix type="matrix" values="0 0 0 0 0 0 0 0 0 0 0 0 0 0 0 0 0 0 0.25 0"/>
<feBlend mode="normal" in2="BackgroundImageFix" result="effect1_dropShadow_599_435"/>
<feBlend mode="normal" in="SourceGraphic" in2="effect1_dropShadow_599_435" result="shape"/>
</filter>
<radialGradient id="paint0_radial_599_435" cx="0" cy="0" r="1" gradientUnits="userSpaceOnUse" gradientTransform="translate(33.1139 18.037) rotate(138.691) scale(16.2949)">
<stop stop-color="#FFA167"/>
<stop offset="0.553987" stop-color="#FF7D31"/>
<stop offset="1" stop-color="#EC5B36"/>
</radialGradient>
<radialGradient id="paint1_radial_599_435" cx="0" cy="0" r="1" gradientUnits="userSpaceOnUse" gradientTransform="translate(28.1065 19.5206) rotate(99.4623) scale(16.9213 22.3152)">
<stop offset="0.466179" stop-color="#D73853" stop-opacity="0"/>
<stop offset="0.9999" stop-color="#D73853"/>
<stop offset="1" stop-color="#D75B8F"/>
</radialGradient>
<radialGradient id="paint2_radial_599_435" cx="0" cy="0" r="1" gradientUnits="userSpaceOnUse" gradientTransform="translate(26.0403 18.7292) rotate(90) scale(16.4419)">
<stop offset="0.89457" stop-color="#D85C90" stop-opacity="0"/>
<stop offset="1" stop-color="#D85C90"/>
</radialGradient>
<radialGradient id="paint3_radial_599_435" cx="0" cy="0" r="1" gradientUnits="userSpaceOnUse" gradientTransform="translate(27.5294 24.9007) rotate(-144.333) scale(14.6142 17.1888)">
<stop offset="0.858005" stop-color="#E07162" stop-opacity="0"/>
<stop offset="1" stop-color="#E07162"/>
</radialGradient>
<clipPath id="clip0_599_435">
<rect width="27.9158" height="27.9158" fill="white" transform="translate(12 9)"/>
</clipPath>
</defs>
</svg>
