<svg fill="none" height="16" viewBox="0 0 16 16" width="16" xmlns="http://www.w3.org/2000/svg"><g fill="#212121"><path d="m6.00195 4.00002c0-1.10347.89454-1.99801 1.998-1.99801 1.10347 0 1.99801.89454 1.99801 1.99801 0 1.10346-.89454 1.998-1.99801 1.998-1.10346 0-1.998-.89454-1.998-1.998zm1.998-.99801c-.55118 0-.998.44682-.998.99801 0 .55118.44682.998.998.998.55119 0 .99801-.44682.99801-.998 0-.55119-.44682-.99801-.99801-.99801z"/><path d="m11 4.5c0-.82843.6716-1.5 1.5-1.5s1.5.67157 1.5 1.5-.6716 1.5-1.5 1.5-1.5-.67157-1.5-1.5zm1.5-.5c-.2761 0-.5.22386-.5.5s.2239.5.5.5.5-.22386.5-.5-.2239-.5-.5-.5z"/><path d="m3.5 3c-.82843 0-1.5.67157-1.5 1.5s.67157 1.5 1.5 1.5 1.5-.67157 1.5-1.5-.67157-1.5-1.5-1.5zm-.5 1.5c0-.27614.22386-.5.5-.5s.5.22386.5.5-.22386.5-.5.5-.5-.22386-.5-.5z"/><path d="m4.26756 6.99969c-.17017.29418-.26756.63572-.26756 1h-2v2.50031c0 .8285.67157 1.5 1.5 1.5.21194 0 .41361-.0439.59639-.1232.07411.3314.18933.6472.34004.9419-.28922.1169-.60531.1813-.93643.1813-1.38071 0-2.5-1.1193-2.5-2.5v-2.50031c0-.55228.44772-1 1-1z"/><path d="m11.5636 12.8187c.2892.1169.6053.1813.9364.1813 1.3807 0 2.5-1.1193 2.5-2.5v-2.50031c0-.55228-.4477-1-1-1h-2.2676c.1702.29418.2676.63572.2676 1.00001l2-.00001v2.50031c0 .8285-.6716 1.5-1.5 1.5-.2119 0-.4136-.0439-.5964-.1232-.0741.3314-.1893.6472-.34.9419z"/><path d="m6 6.99969c-.55228 0-1 .44772-1 1v3.00031c0 1.6569 1.34315 3 3 3s3-1.3431 3-3v-3.00031c0-.55228-.4477-1-1-1zm0 1h4v3.00031c0 1.1046-.89543 2-2 2s-2-.8954-2-2z"/></g></svg>