<svg fill="none" height="48" viewBox="0 0 48 48" width="48" xmlns="http://www.w3.org/2000/svg"><g clip-rule="evenodd" fill="#333" fill-rule="evenodd"><path d="m24 26c5.525 0 10-4.475 10-10s-4.475-10-10-10-10 4.475-10 10 4.475 10 10 10zm8-10c0 4.4204-3.5796 8-8 8s-8-3.5796-8-8 3.5796-8 8-8 8 3.5796 8 8z"/><path d="m6 36c0-4.9653 11.9925-8 18-8s18 3.0347 18 8v6h-36zm2 0c0-.3709.22038-.9789 1.22348-1.7881.98072-.7912 2.44242-1.545 4.21432-2.1969 3.5423-1.3033 7.809-2.015 10.5622-2.015s7.0199.7117 10.5622 2.015c1.7719.6519 3.2336 1.4057 4.2143 2.1969 1.0031.8092 1.2235 1.4172 1.2235 1.7881v4h-32z"/></g></svg>